<svg width="541" height="296" viewBox="0 0 541 296" fill="none" xmlns="http://www.w3.org/2000/svg">
<g clip-path="url(#clip0)">
<path d="M370.908 252.762C421.395 252.166 471.88 252.508 522.364 253.786C526.707 253.896 531.213 254.038 535.049 255.188C538.884 256.338 541.835 258.805 540.786 261.175C521.079 261.758 501.351 261.939 481.604 261.716C477.303 263.822 472.582 266.995 475.225 269.836C477.053 271.802 481.568 272.387 485.516 272.392C492.666 272.4 499.845 271.226 506.89 271.915C513.935 272.603 520.964 276.309 518.9 280.155C517.333 283.076 511.388 284.522 505.977 284.78C500.567 285.038 495.027 284.501 489.738 285.193C484.713 285.851 480.358 287.559 475.655 288.751C468.235 290.632 460.01 291.213 451.918 291.707C389.782 295.503 327.131 295.473 264.629 295.439C239.326 295.425 213.679 295.386 189.244 291.692C175.316 289.587 161.969 286.317 147.865 284.62C131.019 282.594 113.607 282.869 96.3787 282.93C66.1338 283.036 35.9144 282.454 5.7205 281.181C3.47359 281.086 0.715555 280.766 0.109176 279.546C-0.59849 278.123 2.27351 277.013 4.70114 276.445C18.4571 273.261 32.4443 271.175 46.5307 270.206C53.6647 269.704 61.016 269.449 67.5774 267.798C74.1388 266.146 79.8711 262.683 79.8095 258.644C79.7907 257.412 79.2708 256.093 80.2991 255.005C81.6647 253.56 85.0244 253.228 87.9232 253.071C120.058 251.324 152.368 250.595 184.648 250.888C196.003 250.991 207.405 251.219 218.679 250.454C227.917 249.827 236.966 248.541 246.07 247.461C258.291 246.011 311.476 238.499 319.234 244.594C325.042 249.156 313.051 250.141 328.628 252.003C342.191 253.624 357.152 252.924 370.908 252.762Z" fill="#F2F2F2"/>
<path d="M174.359 231.924C174.359 231.924 155.636 268.971 171.571 268.971C187.505 268.971 388.277 269.768 393.854 259.411C397.761 252.154 395.607 226.322 393.967 211.505C393.648 208.625 392.239 205.976 390.027 204.104C387.816 202.232 384.972 201.278 382.079 201.438C338.657 203.835 176.442 212.717 177.148 211.608C178.542 209.417 177.546 210.015 177.546 210.015C177.546 210.015 171.172 230.331 174.359 231.924Z" fill="#3F3D56"/>
<path opacity="0.1" d="M394.365 211.505C394.047 208.625 392.637 205.976 390.426 204.104C388.215 202.232 385.37 201.278 382.477 201.438C339.056 203.835 176.841 212.717 177.546 211.608C178.94 209.417 177.944 210.015 177.944 210.015C177.944 210.015 176.522 214.55 175.357 219.503C175.522 219.487 175.645 219.642 175.107 220.589C175.059 220.802 175.012 221.016 174.966 221.229C181.463 221.871 337.267 213.34 379.689 210.999C382.582 210.838 385.426 211.792 387.637 213.665C389.848 215.537 391.258 218.185 391.577 221.065C392.796 232.082 394.299 249.185 393.384 260.218C393.737 260.026 394.036 259.749 394.252 259.411C398.16 252.154 396.005 226.322 394.365 211.505Z" fill="black"/>
<path d="M196.675 176.404C194.599 175.768 191.973 174.946 192.209 173.607C192.335 172.895 193.287 172.34 193.977 171.743C195.307 170.593 195.666 168.973 194.237 167.863C192.809 166.752 189.368 166.603 188.107 167.779C187.459 168.383 187.498 169.142 187.163 169.825C186.119 171.955 181.894 172.891 178.304 173.718C174.715 174.546 170.699 176.086 171.036 178.29C171.404 180.695 176.942 182.828 174.714 184.878C173.906 185.622 172.206 186.036 171.845 186.887C171.59 187.485 172.101 188.094 172.598 188.641L176.124 192.525C177.527 194.071 178.972 195.753 178.502 197.473C177.571 200.883 170.001 202.188 164.001 201.805C161.803 201.664 159.221 201.472 157.711 202.396C156.547 203.107 156.549 204.215 156.936 205.164C157.932 207.606 161.116 209.72 165.192 210.646C160.624 211.547 158.83 215.345 161.984 217.439C160.179 218.059 158.228 218.115 156.39 217.599C154.83 219.035 155.747 221.006 157.726 222.262C159.704 223.518 162.507 224.225 165.22 224.896L162.681 227.27C164.519 228.706 168.488 228.2 171.164 227.293C173.841 226.385 176.745 225.167 179.744 225.642C182.556 226.087 184.683 227.963 187.547 227.642C189.766 227.393 190.822 225.967 191.513 224.736L194.453 219.503C198.636 220.158 203.035 217.291 201.355 215.005C206.037 215.507 210.645 212.467 209.108 209.889C211.602 211.812 213.357 214.046 214.216 216.389C214.6 217.436 214.833 218.543 215.879 219.43C216.562 219.938 217.354 220.282 218.192 220.433C219.03 220.585 219.892 220.541 220.71 220.304C219.856 221.959 219.165 223.891 220.919 225.295C222.673 226.7 227.736 226.302 227.512 224.58C230.188 225.73 233.186 226.811 236.529 226.896C239.873 226.982 243.532 225.71 243.837 223.804C248.549 225.358 253.478 226.152 258.44 226.155C258.862 224.88 261.809 224.467 264.013 224.779C266.217 225.09 268.261 225.839 270.531 225.841C272.801 225.842 275.243 224.476 274.08 223.361C278.861 224.361 283.768 224.608 288.624 224.095C293.206 223.608 297.548 222.452 302.187 222.203C306.893 221.917 311.605 222.661 315.993 224.384C317.514 225.021 319.405 225.824 321.075 225.324C322.023 225.04 322.484 224.427 323.128 223.939C325.899 221.837 331.565 222.24 335.937 223.066C340.308 223.893 345.394 224.888 349.224 223.427C350.669 222.876 351.734 222.024 353.272 221.561C358.779 219.904 365.371 224.151 371.216 222.929C373.12 222.531 374.665 221.579 376.681 221.461C380.258 221.253 382.621 223.677 386.099 224.199C389.707 224.74 393.619 222.544 392.738 220.472C396.207 220.549 399.664 220.068 402.98 219.048L401.342 216.1C405.424 216.034 408.427 213.108 406.535 211.039C410.629 210.26 413.865 208.162 414.707 205.742C415.548 203.323 413.961 200.677 410.701 199.062C408.777 198.108 406.25 197.438 405.15 196.125C404.358 195.18 404.473 194.08 404.165 193.046C403.491 190.784 400.568 188.787 396.793 188.008C395.153 187.67 393.359 187.542 391.874 187.019C390.389 186.497 389.317 185.366 390.174 184.498C390.627 184.039 391.501 183.768 392.065 183.351C394.355 181.66 390.429 179.52 387.077 178.57L395.082 178.309L396.8 170.515C393.633 173.091 385.418 172.549 383.36 169.629C385.931 170.473 389.38 169.394 390.637 167.859C391.895 166.324 391.586 164.538 391.25 162.854C391.218 162.436 391.079 162.033 390.845 161.685C390.611 161.336 390.291 161.054 389.916 160.867C389.132 160.493 387.884 160.338 387.627 159.773C387.365 159.198 388.378 158.689 388.529 158.1C388.817 156.97 386.22 156.472 384.466 155.926C380.328 154.636 378.324 151.013 373.615 151.131C368.943 151.248 367.638 154.815 367.634 157.488C367.631 160.162 366.05 163.737 361.374 163.688C359.507 163.668 357.88 162.997 356.389 162.354L342.998 156.579C341.228 155.756 339.387 155.096 337.498 154.607C334.797 153.977 331.813 153.902 328.898 153.836L310.165 153.411C309.211 153.336 308.251 153.418 307.324 153.655C306.34 153.984 305.862 154.631 305.269 155.187C302.661 157.637 296.528 158.596 292.102 157.247C290.928 156.889 289.877 156.396 288.633 156.127C284.716 155.278 280.606 156.848 276.537 157.416C269.865 158.346 261.575 156.745 256.766 159.547C255.163 160.481 254.312 161.758 252.826 162.754C251.34 163.75 248.659 164.425 246.785 163.673C247.021 165.5 247.235 167.406 245.998 169.097C244.761 170.787 241.589 172.166 238.472 171.74C236.818 171.302 236.949 169.912 237.731 168.971C238.513 168.03 239.713 167.069 239.323 166.051C238.936 165.042 237.165 164.455 235.841 163.751C234.517 163.047 233.634 161.713 235.04 161.064C234.093 159.846 230.687 159.994 229.189 161.016C227.69 162.037 227.541 163.475 227.377 164.805C227.214 166.135 226.858 167.591 225.122 168.481C222.164 169.998 216.484 169.211 214.522 171.186C213.899 171.814 213.862 172.571 213.505 173.263C211.914 176.352 205.042 177.152 199.426 177.405C199.307 178.047 199.281 178.704 199.348 179.354C201.269 178.523 198.067 176.83 196.675 176.404Z" fill="#61AB43"/>
<path opacity="0.1" d="M391.25 172.874C391.586 174.559 391.895 176.344 390.637 177.879C390.451 178.1 390.24 178.3 390.008 178.475C391.699 178.419 393.39 178.364 395.082 178.309C395.655 175.711 396.228 173.113 396.801 170.515C395.488 171.582 393.31 172.113 391.062 172.162C391.142 172.395 391.205 172.633 391.25 172.874V172.874Z" fill="black"/>
<path opacity="0.1" d="M392.728 182.054C392.528 181.001 390.791 179.932 388.846 179.168C387.134 179.981 385.187 180.152 383.36 179.649C384.779 181.663 389.127 182.545 392.728 182.054Z" fill="black"/>
<path opacity="0.1" d="M395.213 187.733C395.169 187.932 395.125 188.13 395.082 188.329C392.413 188.416 389.745 188.503 387.077 188.591C390.429 189.54 394.356 191.68 392.065 193.371C391.501 193.789 390.627 194.059 390.174 194.518C389.317 195.386 390.389 196.518 391.874 197.04C393.359 197.562 395.153 197.691 396.793 198.029C400.568 198.807 403.491 200.805 404.165 203.067C404.473 204.1 404.358 205.2 405.15 206.145C406.25 207.458 408.777 208.129 410.701 209.082C410.886 209.174 411.065 209.27 411.239 209.368C412.979 208.384 414.229 207.116 414.707 205.743C415.548 203.323 413.961 200.677 410.701 199.062C408.777 198.108 406.25 197.438 405.15 196.125C404.358 195.18 404.473 194.08 404.165 193.046C403.491 190.784 400.568 188.787 396.793 188.009C396.277 187.902 395.745 187.817 395.213 187.733Z" fill="black"/>
<path opacity="0.1" d="M160.689 223.622C161.312 222.296 162.904 221.117 165.192 220.666C163.006 220.212 160.947 219.283 159.16 217.945C158.224 217.973 157.29 217.856 156.39 217.599C154.83 219.035 155.747 221.006 157.726 222.262C158.659 222.826 159.653 223.283 160.689 223.622V223.622Z" fill="black"/>
<path opacity="0.1" d="M174.809 184.78C175.949 184.353 177.117 184.005 178.304 183.739C181.894 182.911 186.119 181.975 187.163 179.845C187.498 179.162 187.459 178.404 188.108 177.799C189.368 176.623 192.809 176.772 194.237 177.883C195.666 178.993 195.307 180.613 193.977 181.764C193.288 182.36 192.335 182.915 192.209 183.627C191.973 184.966 194.599 185.788 196.675 186.424C197.652 186.738 198.566 187.221 199.378 187.849C199.395 187.707 199.412 187.565 199.426 187.425C205.042 187.173 211.914 186.373 213.506 183.283C213.862 182.591 213.899 181.834 214.522 181.206C216.484 179.231 222.164 180.018 225.122 178.501C226.858 177.612 227.214 176.155 227.377 174.825C227.541 173.496 227.69 172.057 229.189 171.036C230.687 170.015 234.093 169.866 235.041 171.084C233.634 171.734 234.517 173.067 235.841 173.771C237.165 174.475 238.936 175.062 239.323 176.072C239.713 177.089 238.513 178.051 237.731 178.992C236.949 179.933 236.818 181.323 238.472 181.76C241.589 182.186 244.761 180.807 245.998 179.117C247.235 177.427 247.021 175.52 246.785 173.693C248.659 174.445 251.34 173.77 252.826 172.774C254.312 171.779 255.163 170.501 256.766 169.567C261.575 166.765 269.866 168.366 276.537 167.436C280.606 166.869 284.716 165.298 288.633 166.147C289.877 166.417 290.928 166.91 292.102 167.267C296.528 168.616 302.661 167.657 305.269 165.208C305.862 164.651 306.34 164.004 307.324 163.675C308.251 163.438 309.211 163.356 310.165 163.431C316.409 163.573 322.654 163.715 328.898 163.857C331.813 163.923 334.797 163.997 337.498 164.628C339.388 165.116 341.228 165.776 342.998 166.599C347.461 168.524 351.925 170.449 356.389 172.375C357.88 173.017 359.507 173.689 361.375 173.708C366.05 173.757 367.631 170.182 367.634 167.508C367.638 164.835 368.943 161.268 373.615 161.151C378.324 161.033 380.328 164.657 384.466 165.946C386.22 166.492 388.817 166.99 388.529 168.12C388.395 168.645 387.578 169.106 387.586 169.608C388.752 169.333 389.812 168.726 390.637 167.859C391.895 166.324 391.586 164.538 391.25 162.854C391.218 162.436 391.079 162.033 390.845 161.685C390.611 161.336 390.291 161.054 389.916 160.867C389.132 160.493 387.884 160.338 387.627 159.773C387.365 159.198 388.378 158.689 388.529 158.1C388.817 156.97 386.22 156.472 384.466 155.926C380.328 154.636 378.324 151.013 373.615 151.131C368.943 151.248 367.638 154.815 367.634 157.488C367.631 160.162 366.05 163.737 361.375 163.688C359.507 163.669 357.88 162.997 356.389 162.354C351.925 160.429 347.461 158.504 342.998 156.579C341.228 155.756 339.388 155.096 337.498 154.607C334.797 153.977 331.813 153.903 328.898 153.836C322.654 153.694 316.409 153.552 310.165 153.411C309.211 153.336 308.251 153.418 307.324 153.655C306.34 153.984 305.862 154.631 305.269 155.188C302.661 157.637 296.528 158.596 292.102 157.247C290.928 156.889 289.877 156.396 288.633 156.127C284.716 155.278 280.606 156.848 276.537 157.416C269.866 158.346 261.575 156.745 256.766 159.547C255.163 160.481 254.312 161.758 252.826 162.754C251.34 163.75 248.659 164.425 246.785 163.673C247.021 165.5 247.235 167.407 245.998 169.097C244.761 170.787 241.589 172.166 238.472 171.74C236.818 171.303 236.949 169.912 237.731 168.971C238.513 168.031 239.713 167.069 239.323 166.051C238.936 165.042 237.165 164.455 235.841 163.751C234.517 163.047 233.634 161.713 235.041 161.064C234.093 159.846 230.687 159.995 229.189 161.016C227.69 162.037 227.541 163.475 227.378 164.805C227.214 166.135 226.858 167.591 225.122 168.481C222.164 169.998 216.484 169.211 214.522 171.186C213.899 171.814 213.862 172.571 213.506 173.263C211.914 176.352 205.043 177.153 199.426 177.405C199.412 177.545 199.395 177.687 199.378 177.829C198.566 177.2 197.652 176.718 196.675 176.404C194.599 175.768 191.973 174.946 192.209 173.607C192.335 172.895 193.288 172.34 193.977 171.743C195.308 170.593 195.666 168.973 194.238 167.862C192.809 166.752 189.368 166.603 188.108 167.779C187.459 168.383 187.498 169.142 187.163 169.825C186.119 171.955 181.894 172.891 178.304 173.718C174.715 174.546 170.699 176.086 171.036 178.29C171.399 180.657 176.761 182.76 174.809 184.78Z" fill="black"/>
<path opacity="0.1" d="M165.192 210.646C164.205 210.828 163.262 211.197 162.413 211.733C162.951 211.757 163.486 211.792 164.001 211.825C170.001 212.208 177.571 210.904 178.502 207.493C178.972 205.773 177.527 204.091 176.124 202.545C175.56 201.924 174.996 201.303 174.432 200.682C171.496 201.679 167.485 202.027 164.001 201.805C161.803 201.664 159.221 201.472 157.711 202.396C156.547 203.107 156.549 204.216 156.936 205.164C157.932 207.606 161.116 209.72 165.192 210.646Z" fill="black"/>
<path d="M287.394 195.053C320.395 195.053 347.148 177.396 347.148 155.615C347.148 133.835 320.395 116.178 287.394 116.178C254.393 116.178 227.641 133.835 227.641 155.615C227.641 177.396 254.393 195.053 287.394 195.053Z" fill="#EA565C"/>
<path opacity="0.2" d="M267.078 152.827C267.078 152.827 239.99 155.615 247.957 144.063C255.924 132.511 265.883 128.527 270.663 131.714C275.443 134.901 277.435 143.665 276.638 143.665C275.842 143.665 264.289 136.893 260.306 142.071C256.322 147.25 267.078 152.827 267.078 152.827Z" fill="white"/>
<path opacity="0.2" d="M290.549 153.956C290.549 153.956 312.918 169.486 299.348 173.061C285.778 176.636 275.627 173.171 274.076 167.639C272.525 162.108 276.722 154.161 277.327 154.68C277.931 155.199 282.285 167.862 288.681 166.528C295.077 165.194 290.549 153.956 290.549 153.956Z" fill="white"/>
<path opacity="0.2" d="M295.771 144.224C295.771 144.224 297.537 117.05 307.6 126.831C317.662 136.612 319.93 147.095 315.991 151.278C312.052 155.46 303.079 155.963 303.212 155.177C303.345 154.392 311.947 144.13 307.505 139.339C303.063 134.548 295.771 144.224 295.771 144.224Z" fill="white"/>
<path d="M215.291 191.866C248.292 191.866 275.045 174.209 275.045 152.429C275.045 130.648 248.292 112.991 215.291 112.991C182.29 112.991 155.538 130.648 155.538 152.429C155.538 174.209 182.29 191.866 215.291 191.866Z" fill="#EA565C"/>
<path opacity="0.2" d="M194.975 149.64C194.975 149.64 167.887 152.429 175.854 140.876C183.821 129.324 193.78 125.34 198.56 128.527C203.341 131.714 205.333 140.478 204.536 140.478C203.739 140.478 192.187 133.706 188.203 138.884C184.22 144.063 194.975 149.64 194.975 149.64Z" fill="white"/>
<path opacity="0.2" d="M218.446 150.769C218.446 150.769 240.816 166.299 227.245 169.874C213.675 173.449 203.524 169.984 201.973 164.453C200.422 158.921 204.62 150.974 205.224 151.493C205.829 152.012 210.182 164.675 216.578 163.341C222.974 162.007 218.446 150.769 218.446 150.769Z" fill="white"/>
<path opacity="0.2" d="M223.669 141.037C223.669 141.037 225.434 113.863 235.497 123.644C245.56 133.425 247.828 143.908 243.889 148.091C239.95 152.273 230.976 152.776 231.109 151.991C231.242 151.205 239.845 140.943 235.403 136.152C230.96 131.361 223.669 141.037 223.669 141.037Z" fill="white"/>
<path opacity="0.1" d="M246.388 118.866C259.403 126.1 267.675 136.933 267.675 149.042C267.675 170.823 240.923 188.48 207.922 188.48C196.614 188.48 186.04 186.406 177.025 182.804C187.419 188.582 200.838 192.065 215.491 192.065C248.492 192.065 275.244 174.408 275.244 152.628C275.244 138.31 263.683 125.775 246.388 118.866Z" fill="black"/>
<path opacity="0.1" d="M318.49 121.654C331.506 128.889 339.778 139.721 339.778 151.831C339.778 173.612 313.025 191.268 280.024 191.268C268.717 191.268 258.143 189.195 249.127 185.593C259.522 191.37 272.94 194.853 287.593 194.853C320.594 194.853 347.347 177.197 347.347 155.416C347.347 141.099 335.786 128.564 318.49 121.654Z" fill="black"/>
<path d="M178.978 144.873C178.978 144.873 230.366 89.9003 356.247 112.607C455.756 130.556 374.042 161.45 335.438 173.606C324.238 177.132 312.635 179.221 300.909 179.823C257.357 182.066 147.812 184.071 178.978 144.873Z" fill="#714B4F"/>
<path opacity="0.1" d="M335.438 161.257C324.238 164.783 312.635 166.872 300.909 167.474C265.627 169.291 187.04 170.95 175.034 150.676C159.873 183.446 259.795 181.542 300.909 179.425C312.635 178.823 324.238 176.734 335.438 173.208C363.734 164.298 415.189 145.32 401.464 128.752C392.223 141.755 357.066 154.447 335.438 161.257Z" fill="black"/>
<path opacity="0.1" d="M288.725 112.806L302.668 140.292" stroke="black" stroke-width="2" stroke-miterlimit="10"/>
<path opacity="0.1" d="M245.703 122.765L257.653 145.869" stroke="black" stroke-width="2" stroke-miterlimit="10"/>
<path opacity="0.1" d="M313.822 112.806L332.544 140.292" stroke="black" stroke-width="2" stroke-miterlimit="10"/>
<path opacity="0.1" d="M245.703 148.259L371.185 132.325" stroke="black" stroke-width="2" stroke-miterlimit="10"/>
<path opacity="0.1" d="M366.405 117.984L375.169 130.333" stroke="black" stroke-width="2" stroke-miterlimit="10"/>
<path opacity="0.1" d="M221.004 132.325L226.581 143.878" stroke="black" stroke-width="2" stroke-miterlimit="10"/>
<path d="M239.735 94.9009C239.735 94.9009 354.326 94.3825 355.378 93.3457C356.429 92.3088 380.609 91.7595 385.34 98.499C390.07 105.238 391.647 108.349 385.34 109.386C379.032 110.423 171.401 216.698 171.401 216.698C171.401 216.698 159.837 217.734 165.619 206.329C171.401 194.924 239.735 94.9009 239.735 94.9009Z" fill="#F6C964"/>
<path d="M287.844 142.303C287.844 146.593 267.155 157.042 241.634 157.042C216.114 157.042 195.425 146.593 195.425 142.303C195.425 138.013 216.114 136.328 241.634 136.328C267.155 136.328 287.844 138.013 287.844 142.303Z" fill="#61AB43"/>
<path d="M241.634 149.872C267.155 149.872 287.844 146.394 287.844 142.104C287.844 137.814 267.155 134.336 241.634 134.336C216.114 134.336 195.425 137.814 195.425 142.104C195.425 146.394 216.114 149.872 241.634 149.872Z" fill="#61AB43"/>
<path d="M343.614 135.133C343.614 139.423 322.925 149.872 297.405 149.872C271.884 149.872 251.195 139.423 251.195 135.133C251.195 130.843 271.884 129.157 297.405 129.157C322.925 129.157 343.614 130.843 343.614 135.133Z" fill="#61AB43"/>
<path d="M297.405 142.702C322.925 142.702 343.614 139.224 343.614 134.934C343.614 130.643 322.925 127.166 297.405 127.166C271.884 127.166 251.195 130.643 251.195 134.934C251.195 139.224 271.884 142.702 297.405 142.702Z" fill="#61AB43"/>
<path d="M399.384 127.962C399.384 132.253 378.695 142.702 353.175 142.702C327.654 142.702 306.965 132.253 306.965 127.962C306.965 123.672 327.654 121.987 353.175 121.987C378.695 121.987 399.384 123.672 399.384 127.962Z" fill="#61AB43"/>
<path d="M353.175 135.531C378.695 135.531 399.384 132.053 399.384 127.763C399.384 123.473 378.695 119.995 353.175 119.995C327.654 119.995 306.965 123.473 306.965 127.763C306.965 132.053 327.654 135.531 353.175 135.531Z" fill="#61AB43"/>
<path d="M182.994 130.169C182.994 130.169 163.989 127.075 173.712 111.606C183.436 96.137 186.706 78.7962 190.949 74.922C195.693 70.5907 293.606 -5.34935 369.885 78.6826C377.966 87.6912 384.535 97.949 389.337 109.058C390.26 111.158 391.277 113.043 392.271 114.037C395.365 117.131 398.017 125.97 392.271 130.39C386.526 134.81 217.247 152.047 182.994 130.169Z" fill="#3F3D56"/>
<path d="M272.053 65.8615C270.882 66.6759 269.501 67.1362 268.075 67.1874C265.878 67.1874 264.097 66.5938 264.097 65.8615C264.097 65.1292 265.878 64.5355 268.075 64.5355C269.501 64.5867 270.882 65.047 272.053 65.8615V65.8615Z" fill="#F2F2F2"/>
<path d="M240.23 57.4639C239.059 58.2783 237.678 58.7386 236.252 58.7898C234.056 58.7898 232.275 58.1962 232.275 57.4639C232.275 56.7316 234.056 56.1379 236.252 56.1379C237.678 56.1891 239.059 56.6494 240.23 57.4639V57.4639Z" fill="#F2F2F2"/>
<path d="M326.677 69.701C325.316 70.1286 323.861 70.1556 322.485 69.7788C320.388 69.1229 318.866 68.0246 319.084 67.3257C319.303 66.6268 321.18 66.5919 323.276 67.2479C324.622 67.7224 325.802 68.5739 326.677 69.701Z" fill="#F2F2F2"/>
<path d="M267.894 47.1601C266.533 47.5877 265.077 47.6147 263.701 47.2379C261.605 46.582 260.082 45.4837 260.301 44.7848C260.519 44.0859 262.396 44.051 264.493 44.707C265.838 45.1815 267.019 46.0331 267.894 47.1601V47.1601Z" fill="#F2F2F2"/>
<path d="M331.981 55.1157C330.62 55.5433 329.164 55.5703 327.788 55.1935C325.692 54.5376 324.169 53.4393 324.388 52.7404C324.607 52.0415 326.484 52.0067 328.58 52.6626C329.926 53.1371 331.106 53.9887 331.981 55.1157V55.1157Z" fill="#F2F2F2"/>
<path d="M318.903 53.928C317.731 54.7425 316.351 55.2028 314.925 55.254C312.728 55.254 310.947 54.6603 310.947 53.928C310.947 53.1957 312.728 52.6021 314.925 52.6021C316.351 52.6533 317.731 53.1136 318.903 53.928V53.928Z" fill="#F2F2F2"/>
<path d="M280.892 45.9724C279.721 46.7869 278.34 47.2472 276.915 47.2984C274.718 47.2984 272.937 46.7047 272.937 45.9724C272.937 45.2401 274.718 44.6465 276.915 44.6465C278.34 44.6977 279.721 45.158 280.892 45.9724V45.9724Z" fill="#F2F2F2"/>
<path d="M310.063 45.9724C308.892 46.7869 307.511 47.2472 306.085 47.2984C303.888 47.2984 302.107 46.7047 302.107 45.9724C302.107 45.2401 303.888 44.6465 306.085 44.6465C307.511 44.6977 308.892 45.158 310.063 45.9724V45.9724Z" fill="#F2F2F2"/>
<path d="M299.014 63.2096C297.842 64.0241 296.461 64.4844 295.036 64.5355C292.839 64.5355 291.058 63.9419 291.058 63.2096C291.058 62.4773 292.839 61.8837 295.036 61.8837C296.461 61.9349 297.842 62.3951 299.014 63.2096V63.2096Z" fill="#F2F2F2"/>
<path d="M266.875 60.1122C267.207 58.7247 267.93 57.4619 268.96 56.4745C270.599 55.012 272.324 54.2692 272.811 54.8156C273.299 55.3621 272.365 56.9907 270.726 58.4533C269.628 59.3642 268.291 59.9401 266.875 60.1122Z" fill="#F2F2F2"/>
<path d="M246.986 55.2503C247.317 53.8628 248.041 52.6001 249.071 51.6127C250.71 50.1501 252.434 49.4074 252.922 49.9538C253.409 50.5002 252.476 52.1289 250.837 53.5915C249.739 54.5024 248.402 55.0783 246.986 55.2503V55.2503Z" fill="#F2F2F2"/>
<path d="M212.511 79.1171C212.843 77.7297 213.567 76.4669 214.597 75.4795C216.236 74.0169 217.96 73.2742 218.447 73.8207C218.935 74.3671 218.001 75.9957 216.362 77.4583C215.264 78.3692 213.927 78.9451 212.511 79.1171Z" fill="#F2F2F2"/>
<path d="M288.974 52.5985C289.306 51.211 290.029 49.9482 291.059 48.9609C292.698 47.4983 294.423 46.7556 294.91 47.302C295.398 47.8484 294.464 49.477 292.825 50.9396C291.727 51.8506 290.39 52.4264 288.974 52.5985Z" fill="#F2F2F2"/>
<path d="M281.018 68.5097C281.35 67.1222 282.074 65.8594 283.104 64.8721C284.743 63.4095 286.467 62.6668 286.954 63.2132C287.442 63.7596 286.508 65.3882 284.869 66.8508C283.771 67.7618 282.434 68.3376 281.018 68.5097Z" fill="#F2F2F2"/>
<path d="M427.828 241.71C427.828 241.71 421.777 243.525 418.751 247.156C418.751 247.156 413.305 249.577 409.977 248.971C406.648 248.366 400.597 254.418 405.438 256.233C410.279 258.049 439.931 262.89 440.537 261.377C441.142 259.864 441.142 244.433 441.142 244.433L427.828 241.71Z" fill="#575A89"/>
<path d="M475.363 239.111C475.363 239.111 469.711 241.934 467.35 246.028C467.35 246.028 462.397 249.343 459.014 249.315C455.632 249.288 450.703 256.284 455.783 257.246C460.863 258.208 490.906 257.913 491.244 256.319C491.582 254.725 488.946 239.521 488.946 239.521L475.363 239.111Z" fill="#575A89"/>
<path d="M437.662 33.9949C445.182 33.9949 451.278 27.899 451.278 20.3792C451.278 12.8595 445.182 6.76355 437.662 6.76355C430.142 6.76355 424.046 12.8595 424.046 20.3792C424.046 27.899 430.142 33.9949 437.662 33.9949Z" fill="#FFB9B9"/>
<path d="M448.706 22.6485C448.706 22.6485 450.219 32.9359 452.942 34.1462C454.837 35.0788 456.572 36.3041 458.086 37.777L450.521 41.4079L435.695 40.5002C435.695 40.5002 436.906 33.8436 434.788 30.5153C432.67 27.1871 448.706 22.6485 448.706 22.6485Z" fill="#FFB9B9"/>
<path d="M476.845 71.3624C476.845 71.3624 483.804 89.2141 476.845 106.461C469.886 123.707 466.86 126.43 466.86 126.43L464.742 103.738L467.178 101.528C467.178 101.528 468.652 94.6434 467.454 90.5672C466.255 86.491 468.071 73.783 468.071 73.783L476.845 71.3624Z" fill="#FFB9B9"/>
<path d="M424.803 110.091C424.803 110.091 416.028 130.061 416.936 139.743C417.844 149.426 424.803 190.273 424.803 190.273C424.803 190.273 423.895 242.92 426.618 242.92C429.341 242.92 442.352 247.761 442.352 244.433C442.352 241.105 445.075 161.226 445.075 161.226C445.075 161.226 460.506 196.324 462.019 199.047C463.532 201.77 473.214 244.433 476.543 244.433C479.871 244.433 490.158 241.407 489.251 239.289C488.343 237.171 478.055 189.97 472.307 177.867C466.558 165.764 467.768 120.076 467.768 120.076L458.086 98.8964L424.803 110.091Z" fill="#3F3D56"/>
<path d="M433.577 14.1765C433.577 14.1765 425.105 13.5714 424.5 11.4534C423.895 9.33538 422.685 7.51995 423.29 7.51995C423.895 7.51995 424.198 6.00711 424.198 6.00711C424.198 6.00711 424.803 5.70454 425.105 6.00711C425.408 6.30967 425.711 3.88911 425.711 3.88911C425.711 3.88911 426.013 2.9814 426.316 3.58655C426.618 4.19169 426.618 3.88911 426.921 2.9814C427.223 2.07369 428.736 1.46855 428.736 1.46855C428.736 1.46855 434.485 1.77112 435.393 0.56084C436.301 -0.64944 446.588 0.258263 448.706 1.77112C450.824 3.28397 460.204 8.73025 458.691 13.2688C457.178 17.8074 451.732 27.7922 451.732 29.3051C451.732 30.8179 449.614 30.5153 449.009 29.0025C448.403 27.4896 443.562 25.6742 443.562 24.7665C443.562 23.8588 440.839 15.3868 439.326 15.9919C437.813 16.5971 435.998 21.4382 435.393 20.5305C434.788 19.6228 433.577 14.1765 433.577 14.1765Z" fill="#3F3D56"/>
<path d="M475.332 55.6287C475.332 55.6287 462.927 37.4745 459.296 36.5667C455.665 35.659 447.496 33.2385 447.496 33.2385C447.496 33.2385 439.326 34.4487 436.906 35.659C434.485 36.8693 425.408 38.9873 425.105 42.6182C424.803 46.249 427.526 81.0446 426.013 84.3729C424.5 87.7012 419.357 119.471 421.777 118.866C424.198 118.261 422.382 110.394 432.972 110.091C443.562 109.789 449.311 103.435 453.245 110.999C457.178 118.563 468.373 124.312 468.373 124.312C468.655 121.873 469.059 119.449 469.583 117.051C470.491 112.815 467.163 102.527 467.163 102.527C467.163 102.527 467.465 78.6241 468.676 75.9009C469.886 73.1778 475.332 55.6287 475.332 55.6287Z" fill="#6C63FF"/>
<path d="M470.794 55.0236L475.332 55.6287C475.332 55.6287 475.03 61.6801 476.24 63.4955C477.45 65.311 479.568 74.6907 478.358 74.9932C477.148 75.2958 466.255 77.1112 466.255 77.1112L465.65 63.193L470.794 55.0236Z" fill="#6C63FF"/>
<path d="M421.777 65.9161C421.777 65.9161 418.751 85.5832 417.238 88.0038C415.726 90.4244 408.161 124.312 408.161 124.312C408.161 124.312 395.722 141.61 401.774 141.308C407.825 141.005 414.213 125.523 414.213 125.523C414.213 125.523 432.972 91.3321 432.972 87.7012C432.972 84.0704 437.511 65.9162 437.511 65.9162L421.777 65.9161Z" fill="#FFB9B9"/>
<path d="M430.552 39.2899L425.105 41.4079C425.105 41.4079 418.146 66.2187 419.659 68.3367C421.172 70.4547 439.326 67.429 439.629 66.5213C439.931 65.6136 436.301 39.2899 430.552 39.2899Z" fill="#6C63FF"/>
</g>
<defs>
<clipPath id="clip0">
<rect width="541" height="295.445" fill="white"/>
</clipPath>
</defs>
</svg>
