<svg width="585" height="436" viewBox="0 0 585 436" fill="none" xmlns="http://www.w3.org/2000/svg">
<g clip-path="url(#clip0)">
<path opacity="0.1" d="M330.893 59.3598C293.395 59.4139 257.302 47.9384 222.779 35.1902C188.256 22.442 153.999 8.16661 117.199 2.11745C93.5312 -1.77091 66.6181 -1.41348 48.1175 12.7048C30.3092 26.287 25.1523 48.7669 22.6642 69.5356C20.7931 85.1594 19.9303 101.558 26.9382 115.849C31.8041 125.771 40.1314 133.948 46.0006 143.404C66.4877 176.298 54.1673 218.317 34.2572 251.974C24.9216 267.766 13.9858 282.903 6.92769 299.599C-0.130411 316.295 -3.02489 335.228 4.17368 351.707C11.307 368.04 27.4198 379.895 44.7114 387.991C79.8263 404.465 120.71 407.996 160.495 409.355C248.564 412.372 336.802 406.22 424.806 400.068C457.372 397.793 490.084 395.502 521.979 388.912C539.687 385.256 557.921 379.83 570.477 367.937C586.415 352.839 589.675 328.187 578.077 310.468C558.629 280.747 507.346 275.142 493.4 242.985C485.71 225.281 492.342 204.978 502.109 187.914C523.057 151.299 559.115 118.503 559.722 77.5506C560.139 49.4276 541.387 21.9925 513.381 9.76962C484.024 -3.03273 443.998 0.259921 423.431 24.1208C402.282 48.702 364.002 59.3218 330.893 59.3598Z" fill="#6C63FF"/>
<path d="M497.895 349.497C497.895 349.497 491.73 345.105 485.62 348.23C485.62 348.23 487.501 352.14 495.236 351.772L497.895 349.497Z" fill="#6C63FF"/>
<path d="M498.677 349.73C498.677 349.73 500.554 357.442 495.848 362.69C495.848 362.69 493.019 359.511 495.848 351.723L498.677 349.73Z" fill="#6C63FF"/>
<path d="M506.343 342.327C506.343 342.327 505.886 335.769 492.166 337.946C492.166 337.946 492.101 342.176 496.917 344.179C501.732 346.183 503.94 344.494 506.343 342.327Z" fill="#6C63FF"/>
<path d="M507.205 342.284C507.205 342.284 513.004 344.293 507.832 358.184C507.832 358.184 504.005 357.263 503.318 351.734C502.63 346.205 504.667 344.299 507.205 342.284Z" fill="#6C63FF"/>
<path d="M514.951 332.98C514.951 332.98 515.738 322.187 501.717 323.292C501.717 323.292 500.714 333.04 512.478 335.574L514.951 332.98Z" fill="#6C63FF"/>
<path d="M524.216 320.795C524.216 320.795 522.295 308.561 508.279 312.206C508.279 312.206 508.229 322.783 521.928 323.709L524.216 320.795Z" fill="#6C63FF"/>
<path d="M515.332 332.899C515.332 332.899 525.275 331.496 524.979 346.665C524.979 346.665 515.994 348.247 513.06 335.699L515.332 332.899Z" fill="#6C63FF"/>
<path d="M521.407 46.1567H39.389C38.2501 46.1567 37.1579 46.6451 36.3526 47.5144C35.5473 48.3838 35.0949 49.5629 35.0949 50.7924V64.2987H525.701V50.7924C525.701 49.5629 525.248 48.3838 524.443 47.5144C523.638 46.6451 522.546 46.1567 521.407 46.1567V46.1567Z" fill="#3F3D56"/>
<path d="M35.0949 64.2988V368.241C35.0949 370.72 36.0071 373.097 37.6309 374.85C39.2546 376.603 41.4569 377.588 43.7532 377.588H517.043C519.339 377.588 521.541 376.603 523.165 374.85C524.789 373.097 525.701 370.72 525.701 368.241V64.2988H35.0949Z" fill="white"/>
<path opacity="0.8" d="M42.8653 57.2586C43.9735 57.2586 44.8719 56.2887 44.8719 55.0924C44.8719 53.896 43.9735 52.9261 42.8653 52.9261C41.7571 52.9261 40.8588 53.896 40.8588 55.0924C40.8588 56.2887 41.7571 57.2586 42.8653 57.2586Z" fill="#FA5959"/>
<path opacity="0.8" d="M48.3834 57.2586C49.4916 57.2586 50.39 56.2887 50.39 55.0924C50.39 53.896 49.4916 52.9261 48.3834 52.9261C47.2752 52.9261 46.3768 53.896 46.3768 55.0924C46.3768 56.2887 47.2752 57.2586 48.3834 57.2586Z" fill="#FED253"/>
<path opacity="0.8" d="M53.9015 57.2586C55.0097 57.2586 55.908 56.2887 55.908 55.0924C55.908 53.896 55.0097 52.9261 53.9015 52.9261C52.7933 52.9261 51.8949 53.896 51.8949 55.0924C51.8949 56.2887 52.7933 57.2586 53.9015 57.2586Z" fill="#8CCF4D"/>
<path opacity="0.05" d="M474.99 114.977H80.6992V302.149H474.99V114.977Z" fill="black"/>
<path d="M471.98 116.396H83.709V299.442H471.98V116.396Z" fill="#3F3D56"/>
<path d="M189.556 163.506C181.916 163.506 174.448 165.952 168.096 170.534C161.744 175.116 156.793 181.628 153.869 189.248C150.946 196.868 150.181 205.252 151.671 213.341C153.162 221.43 156.84 228.86 162.242 234.692C167.644 240.524 174.527 244.495 182.02 246.104C189.513 247.713 197.279 246.887 204.337 243.731C211.395 240.575 217.428 235.23 221.672 228.373C225.917 221.515 228.182 213.453 228.182 205.206C228.182 199.73 227.183 194.307 225.242 189.248C223.301 184.189 220.455 179.592 216.869 175.72C213.282 171.847 209.024 168.776 204.337 166.68C199.651 164.585 194.628 163.506 189.556 163.506V163.506ZM196.483 206.208V225.953H182.828V206.208C180.939 204.664 179.546 202.518 178.847 200.073C178.148 197.628 178.178 195.009 178.932 192.583C179.687 190.158 181.128 188.049 183.052 186.556C184.976 185.062 187.286 184.259 189.656 184.259C192.026 184.259 194.336 185.062 196.26 186.556C198.184 188.049 199.625 190.158 200.379 192.583C201.134 195.009 201.164 197.628 200.464 200.073C199.765 202.518 198.373 204.664 196.483 206.208V206.208Z" fill="#6C63FF"/>
<path opacity="0.05" d="M189.556 163.506C181.916 163.506 174.448 165.952 168.096 170.534C161.744 175.116 156.793 181.628 153.869 189.248C150.946 196.868 150.181 205.252 151.671 213.341C153.162 221.43 156.84 228.86 162.242 234.692C167.644 240.524 174.527 244.495 182.02 246.104C189.513 247.713 197.279 246.887 204.337 243.731C211.395 240.575 217.428 235.23 221.672 228.373C225.917 221.515 228.182 213.453 228.182 205.206C228.182 199.73 227.183 194.307 225.242 189.248C223.301 184.189 220.455 179.592 216.869 175.72C213.282 171.847 209.024 168.776 204.337 166.68C199.651 164.585 194.628 163.506 189.556 163.506V163.506ZM196.483 206.208V225.953H182.828V206.208C180.939 204.664 179.546 202.518 178.847 200.073C178.148 197.628 178.178 195.009 178.932 192.583C179.687 190.158 181.128 188.049 183.052 186.556C184.976 185.062 187.286 184.259 189.656 184.259C192.026 184.259 194.336 185.062 196.26 186.556C198.184 188.049 199.625 190.158 200.379 192.583C201.134 195.009 201.164 197.628 200.464 200.073C199.765 202.518 198.373 204.664 196.483 206.208V206.208Z" fill="black"/>
<path d="M189.556 151.592C179.733 151.592 170.131 154.736 161.964 160.627C153.798 166.519 147.432 174.892 143.673 184.689C139.914 194.485 138.931 205.265 140.847 215.665C142.763 226.065 147.493 235.619 154.439 243.117C161.384 250.615 170.233 255.721 179.867 257.789C189.5 259.858 199.486 258.796 208.561 254.739C217.635 250.681 225.391 243.809 230.848 234.992C236.305 226.175 239.218 215.81 239.218 205.206C239.218 190.987 233.986 177.35 224.672 167.295C215.359 157.241 202.727 151.592 189.556 151.592V151.592ZM198.46 206.495V231.877H180.902V206.495C178.472 204.509 176.68 201.75 175.781 198.606C174.882 195.462 174.92 192.092 175.89 188.973C176.86 185.854 178.713 183.142 181.188 181.221C183.662 179.3 186.633 178.266 189.681 178.266C192.729 178.266 195.7 179.3 198.174 181.221C200.649 183.142 202.502 185.854 203.472 188.973C204.442 192.092 204.48 195.462 203.581 198.606C202.681 201.75 200.89 204.509 198.46 206.495V206.495Z" fill="#6C63FF"/>
<path d="M420.311 198.171H259.785V216.584H420.311V198.171Z" fill="white"/>
<path d="M420.311 231.747H385.698V250.16H420.311V231.747Z" fill="#6C63FF"/>
<path d="M275.587 207.101H272.683L275.266 204.318C275.312 204.266 275.338 204.197 275.338 204.125C275.338 204.054 275.312 203.985 275.266 203.933C275.243 203.908 275.215 203.888 275.184 203.874C275.154 203.86 275.121 203.853 275.088 203.853C275.055 203.853 275.022 203.86 274.992 203.874C274.961 203.888 274.933 203.908 274.91 203.933L272.326 206.722V203.581C272.326 203.509 272.3 203.44 272.253 203.39C272.206 203.339 272.142 203.31 272.076 203.31C272.01 203.312 271.946 203.341 271.9 203.391C271.853 203.442 271.826 203.51 271.825 203.581V206.722L269.246 203.917C269.223 203.891 269.195 203.871 269.165 203.858C269.134 203.844 269.101 203.837 269.068 203.837C269.035 203.837 269.002 203.844 268.972 203.858C268.941 203.871 268.913 203.891 268.89 203.917C268.844 203.968 268.818 204.037 268.818 204.109C268.818 204.181 268.844 204.25 268.89 204.301L271.474 207.085H268.564C268.498 207.086 268.435 207.115 268.388 207.166C268.341 207.216 268.315 207.284 268.313 207.356C268.313 207.428 268.34 207.496 268.387 207.547C268.434 207.598 268.498 207.626 268.564 207.626H271.474L268.89 210.415C268.844 210.467 268.818 210.536 268.818 210.608C268.818 210.68 268.844 210.748 268.89 210.8C268.938 210.849 269.002 210.876 269.068 210.876C269.134 210.876 269.198 210.849 269.246 210.8L271.825 208.011V211.147C271.825 211.218 271.851 211.287 271.898 211.338C271.945 211.389 272.009 211.417 272.076 211.417C272.142 211.417 272.206 211.389 272.253 211.338C272.3 211.287 272.326 211.218 272.326 211.147V208.011L274.91 210.8C274.958 210.849 275.022 210.876 275.088 210.876C275.154 210.876 275.218 210.849 275.266 210.8C275.312 210.748 275.338 210.68 275.338 210.608C275.338 210.536 275.312 210.467 275.266 210.415L272.683 207.626H275.587C275.654 207.626 275.717 207.598 275.764 207.547C275.812 207.496 275.838 207.428 275.838 207.356C275.834 207.287 275.806 207.222 275.759 207.175C275.713 207.127 275.651 207.101 275.587 207.101Z" fill="#6C63FF"/>
<path d="M286.122 207.101H283.217L285.801 204.318C285.847 204.266 285.873 204.197 285.873 204.125C285.873 204.054 285.847 203.985 285.801 203.933C285.777 203.908 285.749 203.888 285.719 203.874C285.688 203.86 285.656 203.853 285.622 203.853C285.589 203.853 285.557 203.86 285.526 203.874C285.495 203.888 285.468 203.908 285.444 203.933L282.861 206.722V203.581C282.861 203.509 282.834 203.44 282.787 203.39C282.74 203.339 282.677 203.31 282.61 203.31C282.544 203.312 282.481 203.341 282.434 203.391C282.387 203.442 282.361 203.51 282.359 203.581V206.722L279.781 203.917C279.758 203.891 279.73 203.871 279.699 203.858C279.669 203.844 279.636 203.837 279.603 203.837C279.57 203.837 279.537 203.844 279.506 203.858C279.476 203.871 279.448 203.891 279.425 203.917C279.378 203.968 279.352 204.037 279.352 204.109C279.352 204.181 279.378 204.25 279.425 204.301L282.008 207.085H279.099C279.032 207.086 278.969 207.115 278.923 207.166C278.876 207.216 278.849 207.284 278.848 207.356C278.848 207.428 278.874 207.496 278.921 207.547C278.968 207.598 279.032 207.626 279.099 207.626H282.008L279.425 210.415C279.378 210.467 279.352 210.536 279.352 210.608C279.352 210.68 279.378 210.748 279.425 210.8C279.473 210.849 279.537 210.876 279.603 210.876C279.669 210.876 279.733 210.849 279.781 210.8L282.359 208.011V211.147C282.359 211.218 282.386 211.287 282.433 211.338C282.48 211.389 282.544 211.417 282.61 211.417C282.677 211.417 282.74 211.389 282.787 211.338C282.834 211.287 282.861 211.218 282.861 211.147V208.011L285.444 210.8C285.493 210.849 285.556 210.876 285.622 210.876C285.689 210.876 285.752 210.849 285.801 210.8C285.847 210.748 285.873 210.68 285.873 210.608C285.873 210.536 285.847 210.467 285.801 210.415L283.217 207.626H286.122C286.188 207.626 286.252 207.598 286.299 207.547C286.346 207.496 286.372 207.428 286.372 207.356C286.369 207.287 286.34 207.222 286.294 207.175C286.247 207.127 286.186 207.101 286.122 207.101Z" fill="#6C63FF"/>
<path d="M296.656 207.101H293.752L296.335 204.318C296.381 204.266 296.407 204.197 296.407 204.125C296.407 204.054 296.381 203.985 296.335 203.933C296.312 203.908 296.284 203.888 296.253 203.874C296.223 203.86 296.19 203.853 296.157 203.853C296.124 203.853 296.091 203.86 296.06 203.874C296.03 203.888 296.002 203.908 295.979 203.933L293.395 206.722V203.581C293.395 203.509 293.369 203.44 293.322 203.39C293.275 203.339 293.211 203.31 293.145 203.31C293.078 203.312 293.015 203.341 292.969 203.391C292.922 203.442 292.895 203.51 292.894 203.581V206.722L290.315 203.917C290.292 203.891 290.264 203.871 290.234 203.858C290.203 203.844 290.17 203.837 290.137 203.837C290.104 203.837 290.071 203.844 290.041 203.858C290.01 203.871 289.982 203.891 289.959 203.917C289.913 203.968 289.887 204.037 289.887 204.109C289.887 204.181 289.913 204.25 289.959 204.301L292.543 207.085H289.633C289.567 207.086 289.504 207.115 289.457 207.166C289.41 207.216 289.384 207.284 289.382 207.356C289.382 207.428 289.409 207.496 289.456 207.547C289.503 207.598 289.567 207.626 289.633 207.626H292.543L289.959 210.415C289.913 210.467 289.887 210.536 289.887 210.608C289.887 210.68 289.913 210.748 289.959 210.8C290.007 210.849 290.071 210.876 290.137 210.876C290.203 210.876 290.267 210.849 290.315 210.8L292.894 208.011V211.147C292.894 211.218 292.92 211.287 292.967 211.338C293.014 211.389 293.078 211.417 293.145 211.417C293.211 211.417 293.275 211.389 293.322 211.338C293.369 211.287 293.395 211.218 293.395 211.147V208.011L295.979 210.8C296.027 210.849 296.091 210.876 296.157 210.876C296.223 210.876 296.287 210.849 296.335 210.8C296.381 210.748 296.407 210.68 296.407 210.608C296.407 210.536 296.381 210.467 296.335 210.415L293.752 207.626H296.656C296.723 207.626 296.786 207.598 296.833 207.547C296.88 207.496 296.907 207.428 296.907 207.356C296.903 207.287 296.875 207.222 296.828 207.175C296.782 207.127 296.72 207.101 296.656 207.101Z" fill="#6C63FF"/>
<path d="M307.191 207.101H304.286L306.87 204.318C306.916 204.266 306.942 204.197 306.942 204.125C306.942 204.054 306.916 203.985 306.87 203.933C306.846 203.908 306.818 203.888 306.788 203.874C306.757 203.86 306.725 203.853 306.691 203.853C306.658 203.853 306.626 203.86 306.595 203.874C306.564 203.888 306.537 203.908 306.513 203.933L303.93 206.722V203.581C303.93 203.509 303.903 203.44 303.856 203.39C303.809 203.339 303.746 203.31 303.679 203.31C303.613 203.312 303.55 203.341 303.503 203.391C303.456 203.442 303.43 203.51 303.428 203.581V206.722L300.85 203.917C300.826 203.891 300.799 203.871 300.768 203.858C300.738 203.844 300.705 203.837 300.672 203.837C300.639 203.837 300.606 203.844 300.575 203.858C300.545 203.871 300.517 203.891 300.494 203.917C300.447 203.968 300.421 204.037 300.421 204.109C300.421 204.181 300.447 204.25 300.494 204.301L303.077 207.085H300.168C300.101 207.086 300.038 207.115 299.992 207.166C299.945 207.216 299.918 207.284 299.917 207.356C299.917 207.428 299.943 207.496 299.99 207.547C300.037 207.598 300.101 207.626 300.168 207.626H303.077L300.494 210.415C300.447 210.467 300.421 210.536 300.421 210.608C300.421 210.68 300.447 210.748 300.494 210.8C300.542 210.849 300.606 210.876 300.672 210.876C300.738 210.876 300.801 210.849 300.85 210.8L303.428 208.011V211.147C303.428 211.218 303.455 211.287 303.502 211.338C303.549 211.389 303.613 211.417 303.679 211.417C303.746 211.417 303.809 211.389 303.856 211.338C303.903 211.287 303.93 211.218 303.93 211.147V208.011L306.513 210.8C306.562 210.849 306.625 210.876 306.691 210.876C306.758 210.876 306.821 210.849 306.87 210.8C306.916 210.748 306.942 210.68 306.942 210.608C306.942 210.536 306.916 210.467 306.87 210.415L304.286 207.626H307.191C307.257 207.626 307.321 207.598 307.368 207.547C307.415 207.496 307.441 207.428 307.441 207.356C307.438 207.287 307.409 207.222 307.363 207.175C307.316 207.127 307.255 207.101 307.191 207.101Z" fill="#6C63FF"/>
<path d="M317.725 207.101H314.821L317.404 204.318C317.45 204.266 317.476 204.197 317.476 204.125C317.476 204.054 317.45 203.985 317.404 203.933C317.381 203.908 317.353 203.888 317.322 203.874C317.292 203.86 317.259 203.853 317.226 203.853C317.193 203.853 317.16 203.86 317.129 203.874C317.099 203.888 317.071 203.908 317.048 203.933L314.464 206.722V203.581C314.464 203.509 314.438 203.44 314.391 203.39C314.344 203.339 314.28 203.31 314.214 203.31C314.147 203.312 314.084 203.341 314.038 203.391C313.991 203.442 313.964 203.51 313.963 203.581V206.722L311.384 203.917C311.361 203.891 311.333 203.871 311.303 203.858C311.272 203.844 311.239 203.837 311.206 203.837C311.173 203.837 311.14 203.844 311.11 203.858C311.079 203.871 311.051 203.891 311.028 203.917C310.982 203.968 310.956 204.037 310.956 204.109C310.956 204.181 310.982 204.25 311.028 204.301L313.612 207.085H310.702C310.636 207.086 310.573 207.115 310.526 207.166C310.479 207.216 310.453 207.284 310.451 207.356C310.451 207.428 310.478 207.496 310.525 207.547C310.572 207.598 310.636 207.626 310.702 207.626H313.612L311.028 210.415C310.982 210.467 310.956 210.536 310.956 210.608C310.956 210.68 310.982 210.748 311.028 210.8C311.076 210.849 311.14 210.876 311.206 210.876C311.272 210.876 311.336 210.849 311.384 210.8L313.963 208.011V211.147C313.963 211.218 313.989 211.287 314.036 211.338C314.083 211.389 314.147 211.417 314.214 211.417C314.28 211.417 314.344 211.389 314.391 211.338C314.438 211.287 314.464 211.218 314.464 211.147V208.011L317.048 210.8C317.096 210.849 317.16 210.876 317.226 210.876C317.292 210.876 317.356 210.849 317.404 210.8C317.45 210.748 317.476 210.68 317.476 210.608C317.476 210.536 317.45 210.467 317.404 210.415L314.821 207.626H317.725C317.792 207.626 317.855 207.598 317.902 207.547C317.949 207.496 317.976 207.428 317.976 207.356C317.972 207.287 317.944 207.222 317.897 207.175C317.851 207.127 317.789 207.101 317.725 207.101Z" fill="#6C63FF"/>
<path d="M328.26 207.101H325.355L327.938 204.318C327.985 204.266 328.011 204.197 328.011 204.125C328.011 204.054 327.985 203.985 327.938 203.933C327.915 203.908 327.887 203.888 327.857 203.874C327.826 203.86 327.794 203.853 327.76 203.853C327.727 203.853 327.695 203.86 327.664 203.874C327.633 203.888 327.606 203.908 327.582 203.933L324.999 206.722V203.581C324.999 203.509 324.972 203.44 324.925 203.39C324.878 203.339 324.815 203.31 324.748 203.31C324.682 203.312 324.619 203.341 324.572 203.391C324.525 203.442 324.499 203.51 324.497 203.581V206.722L321.919 203.917C321.895 203.891 321.868 203.871 321.837 203.858C321.807 203.844 321.774 203.837 321.741 203.837C321.708 203.837 321.675 203.844 321.644 203.858C321.614 203.871 321.586 203.891 321.563 203.917C321.516 203.968 321.49 204.037 321.49 204.109C321.49 204.181 321.516 204.25 321.563 204.301L324.146 207.085H321.237C321.17 207.086 321.107 207.115 321.061 207.166C321.014 207.216 320.987 207.284 320.986 207.356C320.986 207.428 321.012 207.496 321.059 207.547C321.106 207.598 321.17 207.626 321.237 207.626H324.146L321.563 210.415C321.516 210.467 321.49 210.536 321.49 210.608C321.49 210.68 321.516 210.748 321.563 210.8C321.611 210.849 321.675 210.876 321.741 210.876C321.807 210.876 321.87 210.849 321.919 210.8L324.497 208.011V211.147C324.497 211.218 324.524 211.287 324.571 211.338C324.618 211.389 324.682 211.417 324.748 211.417C324.815 211.417 324.878 211.389 324.925 211.338C324.972 211.287 324.999 211.218 324.999 211.147V208.011L327.582 210.8C327.631 210.849 327.694 210.876 327.76 210.876C327.827 210.876 327.89 210.849 327.938 210.8C327.985 210.748 328.011 210.68 328.011 210.608C328.011 210.536 327.985 210.467 327.938 210.415L325.355 207.626H328.26C328.326 207.626 328.39 207.598 328.437 207.547C328.484 207.496 328.51 207.428 328.51 207.356C328.507 207.287 328.478 207.222 328.432 207.175C328.385 207.127 328.324 207.101 328.26 207.101Z" fill="#6C63FF"/>
<path d="M338.794 207.101H335.89L338.473 204.318C338.519 204.266 338.545 204.197 338.545 204.125C338.545 204.054 338.519 203.985 338.473 203.933C338.45 203.908 338.422 203.888 338.391 203.874C338.361 203.86 338.328 203.853 338.295 203.853C338.262 203.853 338.229 203.86 338.198 203.874C338.168 203.888 338.14 203.908 338.117 203.933L335.533 206.722V203.581C335.533 203.509 335.507 203.44 335.46 203.39C335.413 203.339 335.349 203.31 335.283 203.31C335.216 203.312 335.153 203.341 335.107 203.391C335.06 203.442 335.033 203.51 335.032 203.581V206.722L332.453 203.917C332.43 203.891 332.402 203.871 332.372 203.858C332.341 203.844 332.308 203.837 332.275 203.837C332.242 203.837 332.209 203.844 332.179 203.858C332.148 203.871 332.12 203.891 332.097 203.917C332.051 203.968 332.025 204.037 332.025 204.109C332.025 204.181 332.051 204.25 332.097 204.301L334.681 207.085H331.771C331.705 207.086 331.642 207.115 331.595 207.166C331.548 207.216 331.522 207.284 331.52 207.356C331.52 207.428 331.547 207.496 331.594 207.547C331.641 207.598 331.705 207.626 331.771 207.626H334.681L332.097 210.415C332.051 210.467 332.025 210.536 332.025 210.608C332.025 210.68 332.051 210.748 332.097 210.8C332.145 210.849 332.209 210.876 332.275 210.876C332.341 210.876 332.405 210.849 332.453 210.8L335.032 208.011V211.147C335.032 211.218 335.058 211.287 335.105 211.338C335.152 211.389 335.216 211.417 335.283 211.417C335.349 211.417 335.413 211.389 335.46 211.338C335.507 211.287 335.533 211.218 335.533 211.147V208.011L338.117 210.8C338.165 210.849 338.229 210.876 338.295 210.876C338.361 210.876 338.425 210.849 338.473 210.8C338.519 210.748 338.545 210.68 338.545 210.608C338.545 210.536 338.519 210.467 338.473 210.415L335.89 207.626H338.794C338.861 207.626 338.924 207.598 338.971 207.547C339.018 207.496 339.045 207.428 339.045 207.356C339.041 207.287 339.013 207.222 338.966 207.175C338.92 207.127 338.858 207.101 338.794 207.101Z" fill="#6C63FF"/>
<path d="M349.329 207.101H346.424L349.007 204.318C349.054 204.266 349.08 204.197 349.08 204.125C349.08 204.054 349.054 203.985 349.007 203.933C348.984 203.908 348.956 203.888 348.926 203.874C348.895 203.86 348.862 203.853 348.829 203.853C348.796 203.853 348.763 203.86 348.733 203.874C348.702 203.888 348.675 203.908 348.651 203.933L346.068 206.722V203.581C346.068 203.509 346.041 203.44 345.994 203.39C345.947 203.339 345.884 203.31 345.817 203.31C345.751 203.312 345.688 203.341 345.641 203.391C345.594 203.442 345.567 203.51 345.566 203.581V206.722L342.988 203.917C342.964 203.891 342.937 203.871 342.906 203.858C342.876 203.844 342.843 203.837 342.81 203.837C342.777 203.837 342.744 203.844 342.713 203.858C342.683 203.871 342.655 203.891 342.632 203.917C342.585 203.968 342.559 204.037 342.559 204.109C342.559 204.181 342.585 204.25 342.632 204.301L345.215 207.085H342.306C342.239 207.086 342.176 207.115 342.13 207.166C342.083 207.216 342.056 207.284 342.055 207.356C342.055 207.428 342.081 207.496 342.128 207.547C342.175 207.598 342.239 207.626 342.306 207.626H345.215L342.632 210.415C342.585 210.467 342.559 210.536 342.559 210.608C342.559 210.68 342.585 210.748 342.632 210.8C342.68 210.849 342.744 210.876 342.81 210.876C342.876 210.876 342.939 210.849 342.988 210.8L345.566 208.011V211.147C345.566 211.218 345.593 211.287 345.64 211.338C345.687 211.389 345.75 211.417 345.817 211.417C345.884 211.417 345.947 211.389 345.994 211.338C346.041 211.287 346.068 211.218 346.068 211.147V208.011L348.651 210.8C348.7 210.849 348.763 210.876 348.829 210.876C348.895 210.876 348.959 210.849 349.007 210.8C349.054 210.748 349.08 210.68 349.08 210.608C349.08 210.536 349.054 210.467 349.007 210.415L346.424 207.626H349.329C349.395 207.626 349.459 207.598 349.506 207.547C349.553 207.496 349.579 207.428 349.579 207.356C349.576 207.287 349.547 207.222 349.501 207.175C349.454 207.127 349.393 207.101 349.329 207.101Z" fill="#6C63FF"/>
<path d="M359.863 207.101H356.958L359.542 204.318C359.588 204.266 359.614 204.197 359.614 204.125C359.614 204.054 359.588 203.985 359.542 203.933C359.519 203.908 359.491 203.888 359.46 203.874C359.43 203.86 359.397 203.853 359.364 203.853C359.331 203.853 359.298 203.86 359.267 203.874C359.237 203.888 359.209 203.908 359.186 203.933L356.602 206.722V203.581C356.602 203.509 356.576 203.44 356.529 203.39C356.482 203.339 356.418 203.31 356.352 203.31C356.285 203.312 356.222 203.341 356.176 203.391C356.129 203.442 356.102 203.51 356.101 203.581V206.722L353.522 203.917C353.499 203.891 353.471 203.871 353.441 203.858C353.41 203.844 353.377 203.837 353.344 203.837C353.311 203.837 353.278 203.844 353.248 203.858C353.217 203.871 353.189 203.891 353.166 203.917C353.12 203.968 353.094 204.037 353.094 204.109C353.094 204.181 353.12 204.25 353.166 204.301L355.75 207.085H352.84C352.774 207.086 352.711 207.115 352.664 207.166C352.617 207.216 352.59 207.284 352.589 207.356C352.589 207.428 352.616 207.496 352.663 207.547C352.71 207.598 352.774 207.626 352.84 207.626H355.75L353.166 210.415C353.12 210.467 353.094 210.536 353.094 210.608C353.094 210.68 353.12 210.748 353.166 210.8C353.214 210.849 353.278 210.876 353.344 210.876C353.41 210.876 353.474 210.849 353.522 210.8L356.101 208.011V211.147C356.101 211.218 356.127 211.287 356.174 211.338C356.221 211.389 356.285 211.417 356.352 211.417C356.418 211.417 356.482 211.389 356.529 211.338C356.576 211.287 356.602 211.218 356.602 211.147V208.011L359.186 210.8C359.234 210.849 359.298 210.876 359.364 210.876C359.43 210.876 359.494 210.849 359.542 210.8C359.588 210.748 359.614 210.68 359.614 210.608C359.614 210.536 359.588 210.467 359.542 210.415L356.958 207.626H359.863C359.93 207.626 359.993 207.598 360.04 207.547C360.087 207.496 360.114 207.428 360.114 207.356C360.11 207.287 360.082 207.222 360.035 207.175C359.989 207.127 359.927 207.101 359.863 207.101Z" fill="#6C63FF"/>
<path d="M370.397 207.101H367.493L370.076 204.318C370.123 204.266 370.149 204.197 370.149 204.125C370.149 204.054 370.123 203.985 370.076 203.933C370.053 203.908 370.025 203.888 369.995 203.874C369.964 203.86 369.931 203.853 369.898 203.853C369.865 203.853 369.832 203.86 369.802 203.874C369.771 203.888 369.744 203.908 369.72 203.933L367.137 206.722V203.581C367.137 203.509 367.11 203.44 367.063 203.39C367.016 203.339 366.953 203.31 366.886 203.31C366.82 203.312 366.757 203.341 366.71 203.391C366.663 203.442 366.636 203.51 366.635 203.581V206.722L364.057 203.917C364.033 203.891 364.006 203.871 363.975 203.858C363.945 203.844 363.912 203.837 363.879 203.837C363.845 203.837 363.813 203.844 363.782 203.858C363.752 203.871 363.724 203.891 363.701 203.917C363.654 203.968 363.628 204.037 363.628 204.109C363.628 204.181 363.654 204.25 363.701 204.301L366.284 207.085H363.374C363.308 207.086 363.245 207.115 363.199 207.166C363.152 207.216 363.125 207.284 363.124 207.356C363.124 207.428 363.15 207.496 363.197 207.547C363.244 207.598 363.308 207.626 363.374 207.626H366.284L363.701 210.415C363.654 210.467 363.628 210.536 363.628 210.608C363.628 210.68 363.654 210.748 363.701 210.8C363.749 210.849 363.812 210.876 363.879 210.876C363.945 210.876 364.008 210.849 364.057 210.8L366.635 208.011V211.147C366.635 211.218 366.662 211.287 366.709 211.338C366.756 211.389 366.819 211.417 366.886 211.417C366.953 211.417 367.016 211.389 367.063 211.338C367.11 211.287 367.137 211.218 367.137 211.147V208.011L369.72 210.8C369.769 210.849 369.832 210.876 369.898 210.876C369.964 210.876 370.028 210.849 370.076 210.8C370.123 210.748 370.149 210.68 370.149 210.608C370.149 210.536 370.123 210.467 370.076 210.415L367.493 207.626H370.397C370.464 207.626 370.528 207.598 370.575 207.547C370.622 207.496 370.648 207.428 370.648 207.356C370.644 207.287 370.616 207.222 370.57 207.175C370.523 207.127 370.461 207.101 370.397 207.101Z" fill="#6C63FF"/>
<path d="M380.932 207.101H378.027L380.611 204.318C380.657 204.266 380.683 204.197 380.683 204.125C380.683 204.054 380.657 203.985 380.611 203.933C380.588 203.908 380.56 203.888 380.529 203.874C380.499 203.86 380.466 203.853 380.433 203.853C380.4 203.853 380.367 203.86 380.336 203.874C380.306 203.888 380.278 203.908 380.255 203.933L377.671 206.722V203.581C377.671 203.509 377.645 203.44 377.598 203.39C377.551 203.339 377.487 203.31 377.42 203.31C377.354 203.312 377.291 203.341 377.244 203.391C377.198 203.442 377.171 203.51 377.17 203.581V206.722L374.591 203.917C374.568 203.891 374.54 203.871 374.51 203.858C374.479 203.844 374.446 203.837 374.413 203.837C374.38 203.837 374.347 203.844 374.317 203.858C374.286 203.871 374.258 203.891 374.235 203.917C374.189 203.968 374.163 204.037 374.163 204.109C374.163 204.181 374.189 204.25 374.235 204.301L376.818 207.085H373.909C373.843 207.086 373.78 207.115 373.733 207.166C373.686 207.216 373.659 207.284 373.658 207.356C373.658 207.428 373.685 207.496 373.732 207.547C373.779 207.598 373.842 207.626 373.909 207.626H376.818L374.235 210.415C374.189 210.467 374.163 210.536 374.163 210.608C374.163 210.68 374.189 210.748 374.235 210.8C374.283 210.849 374.347 210.876 374.413 210.876C374.479 210.876 374.543 210.849 374.591 210.8L377.17 208.011V211.147C377.17 211.218 377.196 211.287 377.243 211.338C377.29 211.389 377.354 211.417 377.42 211.417C377.487 211.417 377.551 211.389 377.598 211.338C377.645 211.287 377.671 211.218 377.671 211.147V208.011L380.255 210.8C380.303 210.849 380.367 210.876 380.433 210.876C380.499 210.876 380.563 210.849 380.611 210.8C380.657 210.748 380.683 210.68 380.683 210.608C380.683 210.536 380.657 210.467 380.611 210.415L378.027 207.626H380.932C380.998 207.626 381.062 207.598 381.109 207.547C381.156 207.496 381.183 207.428 381.183 207.356C381.179 207.287 381.151 207.222 381.104 207.175C381.058 207.127 380.996 207.101 380.932 207.101Z" fill="#6C63FF"/>
<path d="M461.691 272.981C461.677 272.327 461.602 271.675 461.466 271.037C461.014 269.207 459.996 266.992 458.32 266.439C456.59 265.868 454.92 265.105 453.334 264.165C453.033 258.359 454.267 252.418 452.923 246.792C452.421 244.734 451.593 242.763 451.373 240.656C451.097 238.035 451.759 235.24 450.791 232.825C450.028 230.919 448.353 229.576 446.552 228.872C444.751 228.168 442.81 227.978 440.898 227.789C438.49 227.577 430.695 226.581 427.976 228.904C427.788 229.061 427.62 229.243 427.474 229.446V229.446C427.414 229.535 427.361 229.629 427.314 229.727L427.289 229.771C427.234 229.884 427.189 230.001 427.153 230.123V230.123C427.115 230.256 427.087 230.391 427.068 230.529C427.068 230.572 427.068 230.615 427.068 230.659C427.068 230.702 427.068 230.848 427.068 230.946V231.092C427.068 231.19 427.068 231.287 427.068 231.39C427.068 231.493 427.068 231.466 427.068 231.504C427.103 231.991 427.168 232.478 427.168 232.96C427.174 233.2 427.154 233.44 427.108 233.675C426.941 234.314 426.658 234.91 426.275 235.43V235.43L426.185 235.571C426.13 235.657 426.075 235.739 426.025 235.825C425.974 235.912 425.934 235.977 425.894 236.053C425.854 236.128 425.814 236.177 425.779 236.248C425.73 236.337 425.687 236.429 425.648 236.524C425.648 236.578 425.593 236.627 425.573 236.681C425.51 236.827 425.46 236.98 425.423 237.136C425.305 237.606 425.295 238.101 425.393 238.576C425.528 239.184 425.76 239.761 426.08 240.282C426.205 240.504 426.341 240.721 426.481 240.937L426.832 241.452C426.767 241.954 426.732 242.461 426.727 242.968C426.727 244.664 427.084 246.338 427.77 247.863C428.457 249.388 429.455 250.726 430.69 251.774C430.889 254.061 430.867 256.364 430.625 258.646C430.58 259.123 430.524 259.605 430.464 260.081C430.404 260.558 430.359 260.872 430.299 261.267C429.565 261.381 428.816 261.32 428.106 261.089C427.779 260.931 427.444 260.792 427.103 260.672C425.643 260.276 424.154 261.847 422.709 261.37C422.709 261.446 422.669 261.517 422.644 261.587C422.342 261.385 421.995 261.274 421.64 261.267C420.782 261.224 420.085 260.553 419.463 259.919L417.552 257.975C417.427 257.856 417.316 257.721 417.221 257.574C417.118 257.363 417.041 257.14 416.99 256.908C416.669 255.787 415.891 254.893 415.139 254.043C414.996 253.849 414.807 253.701 414.592 253.615C414.509 253.602 414.425 253.602 414.341 253.615C414.29 253.54 414.235 253.467 414.176 253.399C414.046 253.238 413.907 253.086 413.759 252.944C412.846 252.034 412.756 251.254 411.964 250.236C411.272 249.265 410.645 248.243 410.087 247.176C410.022 246.608 409.932 246.023 409.822 245.432C409.569 244.081 409.201 242.758 408.723 241.479L407.72 239.08L407.604 239.205C406.877 238.035 406.099 237.396 405.402 237.547C404.233 237.807 403.656 240.255 403.842 243.456L404.243 246.705C404.243 246.786 404.278 246.868 404.298 246.949C404.226 247.334 404.189 247.726 404.188 248.118C404.188 248.573 404.579 248.909 404.785 249.315C405.114 249.866 405.289 250.507 405.287 251.162C405.262 251.395 405.196 251.617 405.186 251.844C405.214 252.353 405.378 252.842 405.658 253.252L408.166 257.801L408.668 258.755L408.698 258.798C408.856 259.131 409.087 259.417 409.37 259.632C409.468 260.771 409.748 261.883 410.198 262.919C410.283 263.125 410.378 263.32 410.479 263.515C411.153 264.712 411.947 265.825 412.846 266.835L414.04 268.281C415.219 269.699 416.398 271.124 417.677 272.434C418.135 272.96 418.688 273.379 419.303 273.664C419.603 273.793 419.931 273.835 420.251 273.785C420.572 273.735 420.875 273.594 421.129 273.377C421.129 274.048 421.129 274.72 421.129 275.391C421.315 275.404 421.495 275.469 421.649 275.582C421.804 275.694 421.928 275.849 422.009 276.031C422.09 276.212 422.124 276.414 422.109 276.615C422.094 276.816 422.029 277.008 421.921 277.173C420.868 280.092 419.804 283.038 418.209 285.654C419.335 286.373 420.379 287.233 421.319 288.215C421.929 288.945 422.472 289.738 422.94 290.582C422.985 290.983 423.02 291.378 423.04 291.773C423.411 298.229 421.098 304.635 419.027 310.787C418.43 312.531 417.778 314.356 417.828 316.17C417.435 316.432 417.059 316.723 416.704 317.042C417.115 318.201 416.955 319.235 416.91 320.476C416.895 321.219 416.754 321.953 416.493 322.642C416.275 323.119 416.034 323.584 415.771 324.034C414.472 326.508 414.186 329.449 413.925 332.276C413.77 333.982 414.382 336.067 413.664 337.594C412.425 340.215 411.327 343.01 411.156 345.923C411.15 346.579 411.073 347.231 410.925 347.867C410.77 348.409 410.494 348.869 410.353 349.4C410.209 350.111 410.175 350.843 410.253 351.566C410.348 354.162 409.991 356.754 409.2 359.208C408.572 361.141 407.88 363.21 408.372 365.197C407.162 366.57 406.414 368.342 406.25 370.228C406.237 370.711 406.183 371.191 406.089 371.663C405.936 372.146 405.734 372.609 405.487 373.044C404.478 375.03 404.005 377.281 404.123 379.543C402.618 381.747 401.866 384.466 401.419 387.168C400.973 389.87 400.777 392.621 400.205 395.291C399.443 398.822 398.063 402.391 397.792 406.009C396.167 407.13 395.465 409.301 395.154 411.354C394.843 413.406 394.792 415.562 393.995 417.457C393.583 418.443 392.991 419.326 392.6 420.333C392.326 421.135 392.124 421.964 391.998 422.808C391.757 424.129 391.547 425.602 391.843 426.869C391.417 427.356 390.921 427.764 390.373 428.077C390.453 427.741 390.518 427.405 390.574 427.064C389.279 428.332 386.932 427.887 385.898 429.409C385.588 429.9 385.467 430.501 385.561 431.087C385.654 431.672 385.955 432.195 386.4 432.545C386.723 432.758 387.073 432.92 387.438 433.027C389.947 433.893 392.525 434.765 395.103 434.305C395.408 434.269 395.703 434.168 395.971 434.007C396.307 433.74 396.583 433.396 396.779 433C397.165 432.339 397.551 431.678 397.933 431.018C398.857 431.315 399.796 431.552 400.747 431.727C400.842 432.594 400.912 433.46 400.948 434.327C401.449 434.435 402.121 434.467 402.357 433.964C402.429 433.773 402.458 433.567 402.442 433.363C402.442 432.978 402.493 432.469 402.523 431.949H402.623C404.154 432.016 405.676 431.683 407.063 430.98C406.526 426.182 408.297 421.492 409.832 416.954C411.452 412.177 412.841 407.314 414.241 402.451C415.244 399.028 416.353 395.714 417.336 392.286C418.574 387.953 419.816 383.621 421.063 379.288C421.605 377.382 422.152 375.498 422.774 373.602C424.083 369.767 425.637 366.034 427.424 362.43C427.926 361.406 428.428 360.394 428.839 359.332C429.34 358.038 429.697 356.684 430.098 355.346C430.972 352.602 432.025 349.927 433.248 347.342C433.283 347.272 433.308 347.207 433.344 347.142C433.75 348.934 434.156 350.754 434.427 352.557C434.794 354.768 434.823 357.03 434.512 359.251C434.272 360.762 433.815 362.257 433.87 363.789C433.946 365.907 434.994 367.829 435.511 369.871C435.844 371.399 436.032 372.959 436.073 374.528C436.213 376.965 437.437 379.7 436.574 381.958C433.89 389.112 435.19 397.192 433.66 404.704C432.872 408.559 430.459 412.182 430.65 416.125C430.784 418.923 431.011 421.714 431.332 424.497C431.409 425.376 431.621 426.234 431.959 427.037C432.159 427.46 432.389 427.865 432.646 428.25C432.426 428.342 432.24 428.586 432.079 429.101C431.668 430.454 432.079 432.133 433.193 432.891C433.647 433.153 434.136 433.336 434.643 433.433C435.325 433.642 436.031 433.748 436.74 433.747C436.96 433.734 437.18 433.705 437.397 433.66C438.172 434.012 438.964 434.319 439.77 434.581C439.77 434.803 439.81 435.025 439.835 435.247C439.836 435.363 439.86 435.478 439.905 435.583C439.95 435.689 440.015 435.783 440.096 435.859C440.221 435.922 440.359 435.948 440.497 435.935H443.221C443.221 435.691 443.221 435.442 443.221 435.198C443.533 435.234 443.848 435.198 444.146 435.093C444.444 434.989 444.718 434.818 444.952 434.592C445.193 434.26 445.364 433.876 445.453 433.465C446.196 430.747 446.933 428.026 447.665 425.304C448.544 422.295 448.909 419.139 448.744 415.99C447.776 406.009 449.903 395.995 449.211 385.987C448.794 379.972 449.08 373.924 450.063 367.986C450.289 366.643 450.565 365.278 450.665 363.941C450.886 361.417 450.615 358.866 450.781 356.359C450.836 355.482 450.946 354.61 451.047 353.738C451.734 348.326 452.094 342.872 452.125 337.41C452.11 335.6 452.006 333.792 451.814 331.994C452.337 331.851 452.812 331.55 453.184 331.128C453.63 330.5 453.515 329.617 453.51 328.816C453.51 326.898 454.257 325.09 454.859 323.281C455.632 320.786 456.265 318.243 456.755 315.667C457.274 313.59 457.556 311.453 457.598 309.303C457.598 309.087 457.588 308.87 457.568 308.653C457.757 308.512 457.915 308.327 458.029 308.112C458.16 307.795 458.242 307.456 458.27 307.11C458.451 305.729 458.636 304.343 458.817 302.956C458.951 301.963 459.083 300.972 459.213 299.983L460.808 287.966C460.944 286.921 461.084 285.881 461.22 284.841L461.636 281.733C461.681 281.365 461.732 280.996 461.767 280.65C462.991 278.44 461.822 275.494 461.691 272.981ZM448.383 317.974C447.791 316.457 447.239 314.903 447.38 313.267H447.324C447.456 312.764 447.433 312.228 447.259 311.74C447.104 311.345 446.833 311.009 446.667 310.614C446.489 310.131 446.397 309.617 446.396 309.098C446.272 305.804 446.513 302.506 447.114 299.274C447.179 298.895 447.249 298.51 447.314 298.131C447.525 298 447.717 297.838 447.886 297.649C448.15 297.324 448.368 296.959 448.533 296.566C449.1 295.337 449.617 294.086 450.093 292.813C450.249 292.401 450.475 291.925 450.861 291.822C450.781 294.99 451.082 298.223 449.888 301.083C449.661 301.544 449.492 302.035 449.386 302.545C449.276 303.352 449.587 304.169 449.476 304.971C449.421 305.388 449.256 305.772 449.19 306.184C449.141 306.386 449.142 306.599 449.193 306.8C449.244 307.002 449.343 307.185 449.481 307.332C449.548 307.382 449.62 307.422 449.697 307.451C449.667 307.668 449.642 307.89 449.622 308.101C449.582 308.545 449.562 308.962 449.537 309.222C449.421 310.547 449.376 311.878 449.401 313.208C449.401 314.643 449.451 316.078 449.431 317.54C449.45 317.96 449.385 318.379 449.241 318.77C449.141 318.971 449.012 319.154 448.859 319.311C448.714 318.824 448.553 318.396 448.383 317.974Z" fill="url(#paint0_linear)"/>
<path d="M408.784 255.137C410.315 254.798 410.836 250.73 409.948 246.051C409.06 241.372 407.099 237.853 405.568 238.192C404.037 238.53 403.516 242.598 404.404 247.277C405.293 251.957 407.254 255.475 408.784 255.137Z" fill="#FBBEBE"/>
<path d="M432.16 429.204C431.748 430.547 432.16 432.225 433.273 432.957C433.724 433.216 434.21 433.399 434.713 433.498C435.394 433.706 436.098 433.81 436.805 433.807C437.673 433.763 438.505 433.395 439.373 433.265C439.473 433.238 439.579 433.254 439.669 433.309C439.713 433.359 439.745 433.419 439.764 433.485C439.783 433.55 439.789 433.62 439.78 433.688C439.789 434.22 439.826 434.752 439.89 435.28C439.891 435.396 439.914 435.511 439.959 435.616C440.004 435.722 440.07 435.816 440.151 435.892C440.276 435.955 440.415 435.981 440.552 435.968H443.271C443.333 433.389 443.071 430.813 442.494 428.31C442.456 428.118 442.388 427.935 442.293 427.768C442.062 427.496 441.759 427.307 441.425 427.227C440.76 426.928 440.042 426.793 439.323 426.832C438.445 426.956 437.713 427.568 436.965 428.077C436.218 428.586 435.2 429.036 434.292 428.776C433.384 428.516 432.626 427.698 432.16 429.204Z" fill="#3F3D56"/>
<path d="M392.239 426.826C391.475 427.71 390.537 428.398 389.495 428.841L389.033 429.079C388.97 429.105 388.915 429.152 388.878 429.214C388.869 429.256 388.869 429.3 388.878 429.342C388.886 429.384 388.904 429.424 388.928 429.458C389.312 430.099 389.88 430.587 390.544 430.848C391.209 431.109 391.934 431.129 392.61 430.904C392.909 430.823 393.186 430.667 393.418 430.449C393.8 429.959 394.019 429.345 394.04 428.705C394.192 428.045 394.166 427.352 393.965 426.707C393.267 425.012 393.011 425.781 392.239 426.826Z" fill="#FBBEBE"/>
<path d="M402.663 433.498C402.679 433.703 402.649 433.909 402.578 434.099C402.342 434.597 401.685 434.57 401.173 434.462C401.096 432.625 400.889 430.796 400.556 428.992C399.583 428.943 398.881 429.94 398.359 430.834L397.015 433.135C396.82 433.531 396.546 433.876 396.212 434.142C395.943 434.301 395.649 434.402 395.344 434.44C392.776 434.901 390.182 434.029 387.704 433.162C387.339 433.056 386.99 432.896 386.666 432.686C386.224 432.335 385.924 431.813 385.831 431.23C385.737 430.646 385.857 430.046 386.164 429.555C387.203 428.039 389.535 428.472 390.829 427.216C390.694 428.1 390.472 428.966 390.167 429.799C391.898 429.518 393.062 427.806 394.456 426.664C394.807 426.343 395.229 426.126 395.68 426.035C396.018 426.005 396.359 426.043 396.684 426.149C398.292 426.586 399.796 427.385 401.098 428.494C401.625 428.943 402.447 429.577 402.678 430.27C402.924 431.099 402.663 432.615 402.663 433.498Z" fill="#3F3D56"/>
<path d="M437.171 254.818C442.895 254.818 447.535 249.808 447.535 243.629C447.535 237.45 442.895 232.441 437.171 232.441C431.447 232.441 426.807 237.45 426.807 243.629C426.807 249.808 431.447 254.818 437.171 254.818Z" fill="#FBBEBE"/>
<path d="M457.588 309.688C457.546 311.827 457.265 313.953 456.75 316.019C456.259 318.585 455.626 321.116 454.854 323.6C454.257 325.404 453.51 327.213 453.515 329.124C453.515 329.92 453.635 330.803 453.183 331.431C452.781 331.872 452.275 332.185 451.719 332.336C451.441 332.415 451.185 332.564 450.971 332.77C450.756 332.976 450.59 333.233 450.485 333.522C450.014 332.762 449.661 331.924 449.441 331.041C448.542 328.066 447.706 325.075 446.933 322.068C446.862 321.895 446.832 321.706 446.844 321.517C446.856 321.328 446.911 321.145 447.003 320.985C447.131 320.865 447.279 320.775 447.44 320.719C447.954 320.493 448.425 320.166 448.829 319.755C449.019 319.574 449.176 319.355 449.291 319.111C449.437 318.723 449.503 318.305 449.486 317.887C449.486 316.452 449.486 315.022 449.451 313.587C449.43 312.262 449.477 310.937 449.592 309.617C449.592 309.357 449.637 308.94 449.677 308.496C449.752 307.646 449.903 306.661 450.329 306.33C450.966 305.87 452.872 306.487 453.595 306.596C454.839 306.78 456.103 306.996 457.317 307.251C457.493 308.049 457.584 308.867 457.588 309.688Z" fill="#3F3D56"/>
<path d="M415.741 256.155C415.34 257.022 414.376 257.439 413.634 257.986L411.091 259.87C410.921 260.036 410.722 260.162 410.505 260.242C410.289 260.322 410.06 260.354 409.832 260.336C409.625 260.254 409.435 260.127 409.274 259.964C409.113 259.802 408.983 259.606 408.893 259.388C408.895 259.374 408.895 259.359 408.893 259.345L408.367 258.392L405.859 253.854C405.58 253.447 405.417 252.961 405.392 252.456C405.392 252.224 405.467 252.007 405.487 251.774C405.494 251.12 405.319 250.479 404.986 249.933C404.785 249.527 404.384 249.191 404.394 248.736C404.375 248.138 404.47 247.543 404.675 246.987C404.938 246.473 405.315 246.037 405.773 245.72C406.009 245.535 406.25 245.362 406.501 245.178C406.634 245.08 406.781 245.007 406.937 244.961C407.353 244.869 407.765 245.243 408.186 245.259C409.997 246.57 410.694 249.05 412.119 250.837C412.922 251.855 413.002 252.635 413.91 253.545C414.055 253.686 414.196 253.837 414.331 253.994C414.511 254.206 414.663 254.443 414.783 254.698C414.948 255.164 415.947 255.711 415.741 256.155Z" fill="#3F3D56"/>
<path d="M433.529 254.823C434.277 256.529 434.858 258.403 434.643 260.276C434.599 260.784 434.449 261.274 434.206 261.711C433.484 262.908 431.969 263.125 430.65 263.195C430.372 263.17 430.092 263.205 429.827 263.298C429.561 263.391 429.316 263.54 429.105 263.737C428.928 264.013 428.842 264.345 428.859 264.681C428.877 265.016 428.996 265.335 429.2 265.589C429.624 266.078 430.15 266.449 430.735 266.672C432.822 267.663 435.074 268.481 437.342 268.253C438.395 268.145 439.418 267.815 440.467 267.647C441.61 267.513 442.758 267.445 443.908 267.441C445.273 267.387 446.632 267.241 447.991 267.095L451.593 266.71C451.79 266.713 451.981 266.638 452.13 266.499C452.396 266.163 452.055 265.67 451.724 265.416C449.812 263.889 447.379 262.838 446.291 260.542C445.789 259.459 445.634 258.17 445.263 257C444.891 255.83 444.299 254.774 444.069 253.583C443.946 252.538 443.89 251.484 443.903 250.431C443.916 249.369 443.558 248.34 442.9 247.55C442.182 246.83 441.144 246.645 440.171 246.602C437.773 246.488 435.22 247.106 433.519 248.931C433.063 249.424 432.671 250.014 432.2 250.458C431.728 250.902 431.086 251.032 431.397 251.617C431.708 252.202 432.32 252.565 432.651 253.079C432.986 253.634 433.28 254.217 433.529 254.823V254.823Z" fill="#FBBEBE"/>
<path d="M453.961 270.577C453.328 274.747 452.3 278.835 450.891 282.778C450.183 284.558 449.58 286.385 449.085 288.248C448.699 289.926 448.774 291.724 448.418 293.409C447.976 295.504 447.535 297.606 447.179 299.718C446.581 302.943 446.342 306.234 446.466 309.52C446.468 310.037 446.56 310.55 446.737 311.031C446.903 311.421 447.169 311.757 447.324 312.157C447.441 312.509 447.488 312.883 447.464 313.256C447.44 313.629 447.344 313.992 447.184 314.323C446.926 314.943 446.577 315.514 446.15 316.013C441.475 317.519 436.474 317.026 431.603 317.345C427.113 317.638 422.573 318.634 418.149 317.806C417.647 315.639 418.485 313.37 419.202 311.258C421.284 305.122 423.587 298.732 423.215 292.304C423.176 291.554 423.098 290.807 422.98 290.067C422.252 285.513 423.045 280.796 424.314 276.382C425.102 273.631 425.066 270.701 424.886 267.836C424.796 266.906 424.785 265.969 424.851 265.037C424.923 264.084 425.251 263.176 425.794 262.421C425.794 262.383 425.839 262.345 425.864 262.307C425.889 262.269 426.085 262.275 426.24 262.307C426.28 262.325 426.323 262.335 426.366 262.335C426.409 262.335 426.451 262.325 426.491 262.307L426.546 262.269C426.567 262.253 426.593 262.244 426.619 262.244C426.645 262.244 426.67 262.253 426.692 262.269C426.807 262.345 426.872 262.605 427.123 262.654C427.494 262.714 427.867 262.752 428.242 262.767C428.692 262.782 429.14 262.851 429.576 262.973H429.636C430.289 263.092 430.958 263.031 431.583 262.795C431.998 262.682 432.399 262.515 432.777 262.296C432.887 262.166 433.579 262.047 433.72 261.955C434.176 261.657 434.076 260.26 434.171 259.686C434.224 259.11 434.351 258.545 434.547 258.007C434.776 257.61 435.091 257.28 435.465 257.044C435.84 256.809 436.262 256.677 436.694 256.659C437.558 256.637 438.422 256.72 439.268 256.908C441.139 257.195 443.055 257.146 444.891 257.612C445.814 257.845 446.823 258.197 447.67 257.742C447.901 257.801 447.936 258.018 447.936 258.283C447.915 258.536 447.868 258.784 447.796 259.025C447.475 260.52 448.563 261.896 449.567 262.979C449.991 263.489 450.491 263.919 451.046 264.251C451.548 264.5 452.05 264.603 452.551 264.874C452.958 265.108 453.303 265.449 453.555 265.865C453.844 266.342 454.039 266.879 454.127 267.441C454.234 268.489 454.178 269.549 453.961 270.577Z" fill="#3F3D56"/>
<path opacity="0.1" d="M453.961 270.577C453.328 274.747 452.3 278.836 450.891 282.778C450.183 284.558 449.58 286.385 449.085 288.248C448.699 289.927 448.774 291.725 448.418 293.409C447.976 295.505 447.535 297.606 447.179 299.718C447.073 299.783 446.963 299.842 446.853 299.897C446.229 300.218 445.567 300.448 444.886 300.579C443.663 300.739 442.425 300.695 441.214 300.449L434.056 299.415C431.197 298.998 428.152 298.494 426.03 296.404C424.851 295.255 424.078 293.739 423.23 292.277C423.192 291.527 423.113 290.78 422.995 290.04C422.267 285.486 423.06 280.769 424.329 276.355C425.117 273.604 425.081 270.674 424.901 267.809C424.812 266.879 424.8 265.942 424.866 265.01C424.938 264.057 425.266 263.149 425.809 262.394C425.955 262.348 426.105 262.311 426.255 262.286V262.286C426.356 262.264 426.459 262.249 426.561 262.242H426.707C426.876 262.243 427.044 262.265 427.208 262.307C427.55 262.425 427.885 262.564 428.212 262.724H428.272C428.702 262.877 429.154 262.947 429.606 262.93C430.268 262.93 430.951 262.816 431.613 262.768C432.431 262.63 433.268 262.792 433.991 263.228C434.457 263.633 434.899 264.068 435.315 264.533C435.817 264.959 436.382 265.29 436.985 265.513C441.304 267.293 446.094 267.184 450.339 265.21C450.747 264.96 451.21 264.833 451.679 264.842C452.025 264.915 452.353 265.066 452.642 265.286C452.943 265.475 453.239 265.66 453.545 265.827C453.834 266.305 454.029 266.841 454.117 267.403C454.231 268.463 454.179 269.536 453.961 270.577V270.577Z" fill="black"/>
<path d="M458.33 266.992C456.333 266.333 454.414 265.424 452.612 264.284C452.322 264.066 451.994 263.915 451.648 263.84C451.178 263.834 450.715 263.961 450.304 264.208C446.061 266.182 441.272 266.29 436.955 264.511C436.352 264.286 435.788 263.955 435.285 263.531C434.868 263.068 434.426 262.632 433.961 262.226C432.31 261.073 430.028 262.426 428.182 261.684C427.854 261.527 427.519 261.387 427.178 261.268C425.719 260.872 424.234 262.443 422.799 261.966C422.265 263.532 421.871 265.15 421.62 266.797C421.416 268.688 421.307 270.59 421.294 272.494C421.294 273.637 421.244 274.779 421.294 275.922C421.471 275.953 421.64 276.024 421.79 276.129C421.94 276.234 422.069 276.372 422.167 276.534C422.233 276.723 422.26 276.925 422.246 277.126C422.232 277.327 422.178 277.522 422.087 277.698C421.038 280.606 419.975 283.547 418.385 286.152C419.505 286.873 420.546 287.731 421.485 288.708C423.24 290.712 424.103 293.522 426 295.375C428.137 297.46 431.181 297.969 434.026 298.38L441.184 299.415C442.397 299.66 443.636 299.705 444.861 299.55C445.541 299.416 446.2 299.185 446.823 298.862C447.229 298.679 447.6 298.414 447.916 298.082C448.181 297.758 448.399 297.393 448.563 296.999C449.13 295.775 449.647 294.524 450.124 293.257C450.289 292.808 450.54 292.282 450.991 292.244C453.65 289.656 456.158 287.002 458.817 284.414C459.885 283.458 460.844 282.367 461.671 281.164C462.991 279.058 461.792 276.074 461.671 273.528C461.657 272.877 461.581 272.229 461.446 271.595C461.014 269.748 460.001 267.539 458.33 266.992Z" fill="#6C63FF"/>
<path opacity="0.1" d="M415.741 256.155C415.34 257.022 414.376 257.439 413.634 257.986L411.091 259.87C410.921 260.036 410.722 260.162 410.505 260.242C410.289 260.322 410.06 260.354 409.832 260.336C409.625 260.253 409.435 260.127 409.274 259.964C409.113 259.802 408.983 259.606 408.894 259.388C408.894 259.264 408.894 259.128 408.894 258.998C408.874 258.56 408.929 258.121 409.054 257.704C409.303 257.092 409.689 256.556 410.178 256.144C411.122 255.179 412.245 254.441 413.474 253.978C413.665 253.898 413.873 253.875 414.075 253.913C414.153 253.935 414.228 253.97 414.296 254.016C414.476 254.227 414.628 254.464 414.748 254.72C414.948 255.164 415.947 255.711 415.741 256.155Z" fill="black"/>
<path d="M421.73 261.863C420.878 261.82 420.18 261.154 419.558 260.52L417.657 258.614C417.53 258.498 417.418 258.363 417.326 258.213C417.223 258.003 417.146 257.779 417.095 257.547C416.692 256.453 416.06 255.474 415.249 254.688C415.108 254.494 414.918 254.347 414.702 254.265C414.499 254.225 414.288 254.247 414.096 254.33C412.867 254.792 411.744 255.53 410.8 256.496C410.311 256.908 409.925 257.444 409.676 258.056C409.55 258.473 409.496 258.912 409.516 259.35C409.527 260.781 409.825 262.193 410.388 263.488C410.474 263.688 410.569 263.889 410.669 264.084C411.339 265.278 412.129 266.388 413.027 267.392L414.221 268.833C415.395 270.252 416.569 271.671 417.843 272.976C418.3 273.502 418.853 273.919 419.468 274.2C419.777 274.336 420.114 274.377 420.443 274.32C420.773 274.263 421.081 274.109 421.334 273.875C421.575 273.575 421.755 273.224 421.866 272.846C422.638 270.68 423.371 268.427 423.416 266.093C423.427 265.158 423.39 264.223 423.306 263.293C423.23 262.307 422.583 261.923 421.73 261.863Z" fill="#6C63FF"/>
<path d="M452.13 337.681C452.101 343.128 451.742 348.568 451.057 353.965C450.956 354.837 450.846 355.709 450.791 356.581C450.625 359.11 450.896 361.65 450.675 364.163C450.56 365.522 450.299 366.871 450.078 368.197C449.098 374.119 448.812 380.151 449.226 386.15C449.918 396.131 447.796 406.117 448.759 416.071C448.876 418.006 448.776 419.95 448.463 421.86C448.284 423.045 448.024 424.214 447.686 425.359C446.953 428.07 446.217 430.778 445.478 433.482C445.391 433.893 445.22 434.278 444.977 434.608C444.721 434.847 444.421 435.024 444.096 435.128C443.772 435.232 443.431 435.259 443.096 435.209C440.201 435.112 437.477 433.763 434.849 432.447C434.546 432.319 434.266 432.136 434.021 431.906C433.474 431.294 433.519 430.33 433.278 429.523C433.038 428.716 432.385 427.958 432.014 427.129C431.709 426.346 431.524 425.513 431.467 424.665C431.133 421.893 430.906 419.109 430.785 416.315C430.595 412.383 433.002 408.765 433.795 404.942C435.3 397.425 434.026 389.367 436.7 382.235C437.542 379.982 436.318 377.252 436.198 374.826C436.155 373.261 435.966 371.704 435.636 370.18C435.134 368.143 434.076 366.226 434.001 364.114C433.946 362.587 434.402 361.098 434.638 359.592C434.951 357.376 434.922 355.12 434.553 352.915C434.287 351.095 433.88 349.276 433.474 347.499L433.384 347.7C432.162 350.279 431.11 352.948 430.238 355.688C429.837 357.014 429.486 358.368 428.984 359.657C428.573 360.74 428.066 361.731 427.57 362.749C425.788 366.34 424.238 370.058 422.93 373.878C422.307 375.752 421.761 377.669 421.219 379.548L417.502 392.546C416.498 395.963 415.4 399.266 414.417 402.678C413.027 407.552 411.638 412.383 410.022 417.149C408.517 421.671 406.726 426.355 407.263 431.131C405.88 431.833 404.361 432.166 402.834 432.101C400.248 431.854 397.712 431.189 395.309 430.13C394.351 429.745 393.358 429.312 392.711 428.462C391.597 426.994 391.873 424.844 392.209 422.976C392.336 422.134 392.537 421.307 392.811 420.506C393.192 419.51 393.814 418.627 394.205 417.641C394.993 415.751 395.043 413.612 395.354 411.56C395.665 409.507 396.358 407.341 397.983 406.225C398.259 402.619 399.633 399.061 400.391 395.535C400.963 392.865 401.153 390.12 401.605 387.412C402.056 384.704 402.784 381.996 404.299 379.803C404.179 377.541 404.652 375.289 405.663 373.304C405.907 372.868 406.107 372.405 406.26 371.923C406.353 371.453 406.407 370.974 406.42 370.494C406.586 368.612 407.332 366.844 408.537 365.473C408.036 363.497 408.733 361.433 409.36 359.516C410.15 357.07 410.507 354.485 410.414 351.897C410.336 351.174 410.368 350.442 410.509 349.73C410.649 349.189 410.925 348.729 411.086 348.209C411.229 347.572 411.305 346.92 411.311 346.264C411.507 343.335 412.606 340.573 413.82 337.957C414.542 336.43 413.93 334.356 414.081 332.655C414.341 329.828 414.627 326.904 415.927 324.44C416.167 323.974 416.428 323.53 416.644 323.048C416.905 322.36 417.046 321.625 417.06 320.882C417.105 319.642 417.266 318.613 416.855 317.459C419.538 315.049 423.2 314.372 426.692 314.21C430.183 314.047 433.715 314.389 437.131 313.587C438.134 313.343 439.138 313.008 440.196 312.845C442.599 312.466 445.037 313.056 447.41 313.641C447.244 315.266 447.796 316.826 448.413 318.337C450.822 324.457 452.085 331.031 452.13 337.681V337.681Z" fill="#33313F"/>
<path opacity="0.1" d="M440.316 338.921L434.553 352.915C434.287 351.095 433.88 349.275 433.474 347.499L433.384 347.7V347.407L436.524 339.95L440.316 338.921Z" fill="black"/>
<path opacity="0.1" d="M457.588 309.688C457.255 309.956 456.858 310.116 456.444 310.148C455.809 310.172 455.174 310.079 454.568 309.872L450.053 308.653C449.912 308.616 449.774 308.563 449.642 308.496C449.717 307.646 449.868 306.661 450.294 306.33C450.931 305.87 452.837 306.487 453.56 306.596C454.804 306.78 456.068 306.996 457.282 307.251C457.47 308.048 457.573 308.866 457.588 309.688V309.688Z" fill="black"/>
<path d="M461.405 277.465C461.501 277.915 461.636 278.359 461.716 278.814C461.851 279.93 461.816 281.062 461.611 282.166L461.2 285.264L460.788 288.378L459.198 300.362L458.807 303.33L458.255 307.473C458.229 307.818 458.148 308.155 458.014 308.469C457.85 308.764 457.62 309.009 457.346 309.184C457.072 309.359 456.762 309.458 456.444 309.471C455.809 309.493 455.175 309.4 454.568 309.195L450.053 307.971C449.855 307.933 449.667 307.85 449.501 307.727C449.363 307.582 449.264 307.399 449.213 307.199C449.162 306.998 449.161 306.786 449.21 306.585C449.276 306.173 449.441 305.789 449.496 305.377C449.607 304.576 449.296 303.752 449.406 302.956C449.514 302.449 449.683 301.96 449.908 301.5C451.413 297.909 450.54 293.717 451.051 289.818C451.512 286.749 452.713 283.866 454.533 281.457C455.656 279.936 456.947 278.569 458.375 277.384C458.937 276.913 459.83 275.944 460.538 275.759C461.446 275.554 461.255 276.783 461.405 277.465Z" fill="#6C63FF"/>
<path d="M427.239 230.816C426.907 231.953 427.424 233.204 427.188 234.363C426.933 235.641 425.819 236.529 425.503 237.813C425.001 239.768 426.536 241.549 427.66 243.174C431.824 249.207 431.277 257.558 429.852 264.918C428.706 270.822 427.12 276.618 425.112 282.247C424.485 283.997 423.792 285.773 422.558 287.083C424.866 286.369 427.319 285.648 429.631 286.341C432.561 287.219 435.089 290.289 438.059 289.591C439.845 289.163 441.099 287.452 442.704 286.504C445.714 284.755 449.341 285.854 452.697 286.417C453.42 286.601 454.177 286.56 454.879 286.298C455.416 285.987 455.871 285.534 456.203 284.982C457.701 282.908 458.598 280.402 458.782 277.779C458.861 276.474 458.683 275.164 458.258 273.938C457.833 272.713 457.172 271.598 456.319 270.669C455.606 269.943 454.754 269.358 454.207 268.503C453.675 267.503 453.39 266.373 453.379 265.221C452.983 259.264 454.327 253.182 452.943 247.42C452.441 245.367 451.623 243.402 451.403 241.3C451.127 238.685 451.784 235.885 450.821 233.491C450.063 231.59 448.393 230.242 446.592 229.549C444.791 228.855 442.865 228.66 440.953 228.466C438.204 228.216 428.387 226.944 427.239 230.816Z" fill="#33313F"/>
<g opacity="0.1">
<path opacity="0.1" d="M429.852 264.918C428.711 270.798 427.135 276.57 425.137 282.177C425.483 281.435 425.774 280.655 426.05 279.881C428.061 274.252 429.646 268.456 430.79 262.551C432.22 255.186 432.767 246.846 428.603 240.808C427.6 239.367 426.311 237.807 426.356 236.118C425.985 236.629 425.697 237.204 425.503 237.818C425.001 239.773 426.536 241.555 427.66 243.18C431.824 249.207 431.277 257.558 429.852 264.918Z" fill="black"/>
<path opacity="0.1" d="M427.249 233.816C427.651 233.276 427.951 232.656 428.131 231.991C428.209 231.187 428.189 230.375 428.071 229.576C427.685 229.89 427.395 230.322 427.239 230.816C426.943 231.774 427.284 232.814 427.249 233.816Z" fill="black"/>
<path opacity="0.1" d="M457.146 282.599C456.814 283.15 456.359 283.6 455.822 283.91C455.121 284.177 454.363 284.219 453.64 284.029C450.284 283.487 446.617 282.372 443.647 284.121C442.037 285.063 440.788 286.775 438.997 287.208C436.032 287.923 433.504 284.852 430.574 283.959C428.498 283.336 426.311 283.85 424.219 284.5C423.803 285.457 423.242 286.332 422.558 287.089C424.866 286.374 427.319 285.654 429.631 286.347C432.561 287.224 435.089 290.295 438.059 289.596C439.845 289.168 441.099 287.457 442.704 286.509C445.714 284.76 449.341 285.859 452.697 286.423C453.42 286.607 454.177 286.566 454.879 286.304C455.416 285.992 455.871 285.539 456.203 284.988C457.113 283.693 457.814 282.243 458.28 280.698C457.945 281.361 457.566 281.996 457.146 282.599Z" fill="black"/>
</g>
</g>
<defs>
<linearGradient id="paint0_linear" x1="385.562" y1="331.659" x2="462.313" y2="331.659" gradientUnits="userSpaceOnUse">
<stop stop-color="#808080" stop-opacity="0.25"/>
<stop offset="0.54" stop-color="#808080" stop-opacity="0.12"/>
<stop offset="1" stop-color="#808080" stop-opacity="0.1"/>
</linearGradient>
<clipPath id="clip0">
<rect width="585" height="436" fill="white"/>
</clipPath>
</defs>
</svg>
