<svg width="585" height="436" viewBox="0 0 585 436" fill="none" xmlns="http://www.w3.org/2000/svg">
<path opacity="0.1" d="M333.742 61.1441C298.091 59.9146 264.137 48.4432 231.714 35.8961C199.291 23.3489 167.177 9.42959 132.38 2.80473C109.999 -1.47645 84.4008 -2.0802 66.3716 9.87966C49.0254 21.384 43.4068 41.264 40.3936 59.6731C38.1241 73.5375 36.7911 88.132 43.0047 101.113C47.3233 110.125 54.9801 117.7 60.2792 126.328C78.7161 156.367 65.683 193.405 45.7093 222.731C36.3449 236.486 25.4657 249.626 18.233 264.253C11.0004 278.881 7.65678 295.676 13.986 310.616C20.2547 325.436 35.1991 336.545 51.3885 344.366C84.2686 360.256 122.999 364.801 160.792 367.38C244.427 373.078 328.503 370.613 412.359 368.138C443.394 367.227 474.56 366.299 505.088 361.518C522.044 358.862 539.544 354.647 551.855 344.47C567.477 331.556 571.35 309.689 560.878 293.491C543.317 266.328 494.777 259.582 482.487 230.432C475.734 214.383 482.669 196.512 492.491 181.632C513.555 149.704 548.859 121.695 550.715 85.2065C551.993 60.1451 535.021 35.0453 508.779 23.1843C481.275 10.7524 443.129 12.3166 422.847 32.8883C401.942 54.0801 365.212 62.2363 333.742 61.1441Z" fill="#6C63FF"/>
<path d="M142.95 67.7744H0V210.212H142.95V67.7744Z" fill="#E8E9ED"/>
<path d="M585 67.7744H442.05V210.212H585V67.7744Z" fill="#E8E9ED"/>
<path opacity="0.5" d="M80.0877 17.5803L78.661 16.1258C78.6327 16.0942 78.5978 16.069 78.5589 16.052C78.5199 16.0349 78.4777 16.0264 78.4352 16.027C78.3925 16.0257 78.3501 16.0338 78.311 16.0509C78.272 16.068 78.2372 16.0936 78.2093 16.1258L68.3492 26.0054L64.7576 22.4323C64.7288 22.4014 64.6938 22.3767 64.655 22.3599C64.6161 22.343 64.5742 22.3343 64.5318 22.3343C64.4894 22.3343 64.4475 22.343 64.4086 22.3599C64.3698 22.3767 64.3348 22.4014 64.3059 22.4323L62.8682 23.8649C62.8369 23.8946 62.812 23.9304 62.7949 23.97C62.7779 24.0096 62.7691 24.0523 62.7691 24.0954C62.7691 24.1385 62.7779 24.1812 62.7949 24.2208C62.812 24.2604 62.8369 24.2962 62.8682 24.3259L67.3962 28.8321C67.6393 29.1004 67.9765 29.2654 68.3381 29.2932C68.6954 29.2621 69.0296 29.1043 69.2801 28.8486V28.8486L80.0932 18.0414C80.1501 17.978 80.1816 17.8959 80.1816 17.8108C80.1816 17.7258 80.1501 17.6437 80.0932 17.5803H80.0877Z" fill="#3ACC6C"/>
<path opacity="0.5" d="M71.4725 8.16717C74.8352 8.16957 78.0931 9.33353 80.6912 11.4608C83.2892 13.588 85.0668 16.5469 85.7211 19.8335C86.3754 23.1201 85.8659 26.5311 84.2794 29.4854C82.693 32.4397 80.1277 34.7547 77.0205 36.0358C73.9133 37.317 70.4564 37.4852 67.2388 36.5118C64.0211 35.5383 61.2416 33.4835 59.3738 30.6972C57.506 27.911 56.6655 24.5657 56.9953 21.2312C57.3251 17.8967 58.8049 14.7793 61.1826 12.4099C62.5312 11.0602 64.135 9.99021 65.9012 9.26195C67.6674 8.5337 69.561 8.16159 71.4725 8.16717ZM71.4725 5.91132C68.1461 5.91132 64.8944 6.89424 62.1287 8.73576C59.3629 10.5773 57.2074 13.1947 55.9347 16.257C54.662 19.3192 54.3293 22.6888 54.9786 25.9395C55.628 29.1901 57.2302 32.1759 59.5827 34.5192C61.9352 36.8625 64.9323 38.458 68.1949 39.104C71.4576 39.7499 74.8391 39.4173 77.912 38.1482C80.9849 36.879 83.611 34.7304 85.4583 31.974C87.3055 29.2176 88.2909 25.9773 88.2898 22.6628C88.2906 20.4623 87.856 18.2832 87.0111 16.2502C86.1661 14.2171 84.9273 12.3699 83.3654 10.8142C81.8036 9.25843 79.9493 8.02467 77.9086 7.18341C75.868 6.34214 73.6809 5.90988 71.4725 5.91132V5.91132Z" fill="#6C63FF"/>
<path opacity="0.8" d="M190.494 64.4153L188.698 62.5821C188.663 62.5434 188.619 62.5127 188.571 62.4919C188.522 62.4711 188.47 62.4607 188.417 62.4614C188.364 62.4591 188.31 62.4688 188.261 62.4897C188.211 62.5106 188.167 62.5421 188.131 62.5821L175.72 75.0415L171.198 70.5407C171.162 70.5026 171.118 70.4722 171.07 70.4514C171.022 70.4306 170.97 70.4199 170.917 70.42C170.864 70.4198 170.811 70.4305 170.761 70.4512C170.712 70.472 170.668 70.5024 170.631 70.5407L168.818 72.3465C168.779 72.3835 168.747 72.4281 168.726 72.4777C168.704 72.5272 168.693 72.5807 168.693 72.6347C168.693 72.6887 168.704 72.7421 168.726 72.7917C168.747 72.8412 168.779 72.8859 168.818 72.9228L174.514 78.5872C174.822 78.924 175.248 79.1303 175.704 79.1635C176.15 79.1253 176.567 78.9309 176.883 78.6146L190.489 64.9807C190.552 64.9032 190.587 64.8063 190.587 64.7063C190.587 64.6062 190.552 64.5093 190.489 64.4318L190.494 64.4153Z" fill="#3ACC6C"/>
<path opacity="0.8" d="M179.642 52.5598C183.88 52.5607 187.985 54.0255 191.26 56.7045C194.535 59.3835 196.777 63.111 197.603 67.252C198.429 71.393 197.788 75.6913 195.79 79.4145C193.792 83.1378 190.561 86.0556 186.646 87.671C182.731 89.2864 178.375 89.4993 174.321 88.2735C170.266 87.0477 166.763 84.4591 164.409 80.9486C162.055 77.4381 160.996 73.2229 161.411 69.0212C161.826 64.8196 163.69 60.8913 166.686 57.9058C168.383 56.2043 170.402 54.8555 172.626 53.9378C174.85 53.0201 177.235 52.5517 179.642 52.5598V52.5598ZM179.642 49.7221C175.455 49.7221 171.363 50.9592 167.881 53.2769C164.4 55.5947 161.687 58.8889 160.085 62.7432C158.482 66.5975 158.063 70.8386 158.88 74.9302C159.697 79.0219 161.713 82.7803 164.674 85.7302C167.634 88.6801 171.406 90.6891 175.512 91.5029C179.619 92.3168 183.875 91.8991 187.743 90.3026C191.612 88.7061 194.918 86.0026 197.244 82.5338C199.57 79.0651 200.811 74.987 200.811 70.8152C200.812 68.045 200.265 65.3018 199.202 62.7424C198.138 60.1829 196.579 57.8573 194.613 55.8985C192.647 53.9397 190.313 52.386 187.744 51.3262C185.176 50.2665 182.423 49.7214 179.642 49.7221V49.7221Z" fill="#6C63FF"/>
<path opacity="0.5" d="M513.522 8.16717C516.885 8.16957 520.143 9.33353 522.741 11.4608C525.339 13.588 527.116 16.5469 527.771 19.8335C528.425 23.1201 527.916 26.5311 526.329 29.4854C524.743 32.4397 522.177 34.7547 519.07 36.0358C515.963 37.317 512.506 37.4852 509.288 36.5118C506.071 35.5383 503.291 33.4835 501.423 30.6972C499.556 27.911 498.715 24.5657 499.045 21.2312C499.375 17.8967 500.855 14.7793 503.232 12.4099C504.581 11.0602 506.185 9.99021 507.951 9.26195C509.717 8.5337 511.611 8.16159 513.522 8.16717V8.16717ZM513.522 5.91132C510.196 5.91132 506.944 6.89424 504.178 8.73576C501.413 10.5773 499.257 13.1947 497.984 16.257C496.712 19.3192 496.379 22.6888 497.028 25.9395C497.678 29.1901 499.28 32.1759 501.632 34.5192C503.985 36.8625 506.982 38.458 510.245 39.104C513.507 39.7499 516.889 39.4173 519.962 38.1482C523.034 36.879 525.661 34.7304 527.508 31.974C529.355 29.2176 530.341 25.9773 530.339 22.6628C530.34 20.4623 529.906 18.2832 529.061 16.2502C528.216 14.2171 526.977 12.3699 525.415 10.8142C523.853 9.25843 521.999 8.02467 519.958 7.18341C517.918 6.34214 515.731 5.90988 513.522 5.91132V5.91132Z" fill="#6C63FF"/>
<path opacity="0.8" d="M404.581 52.5597C408.819 52.5543 412.928 54.0137 416.208 56.6892C419.487 59.3647 421.734 63.0906 422.565 67.2318C423.396 71.373 422.759 75.6732 420.764 79.3993C418.77 83.1255 415.539 86.0469 411.625 87.6657C407.71 89.2844 403.353 89.5003 399.297 88.2764C395.24 87.0526 391.735 84.4648 389.379 80.9542C387.023 77.4436 385.962 73.2275 386.377 69.0246C386.791 64.8217 388.656 60.8921 391.653 57.9057C393.35 56.2057 395.37 54.8579 397.593 53.9403C399.817 53.0227 402.202 52.5535 404.608 52.5597H404.581ZM404.608 49.7221C400.422 49.7221 396.329 50.9592 392.848 53.2769C389.366 55.5946 386.653 58.8889 385.051 62.7432C383.449 66.5974 383.029 70.8385 383.846 74.9302C384.663 79.0218 386.679 82.7802 389.64 85.7302C392.6 88.6801 396.372 90.689 400.479 91.5029C404.585 92.3168 408.841 91.8991 412.709 90.3026C416.578 88.7061 419.884 86.0025 422.21 82.5338C424.536 79.0651 425.778 74.9869 425.778 70.8151C425.778 68.0426 425.23 65.2972 424.165 62.736C423.1 60.1747 421.538 57.8479 419.569 55.8888C417.6 53.9296 415.263 52.3765 412.691 51.3183C410.119 50.2602 407.363 49.7177 404.581 49.7221H404.608Z" fill="#6C63FF"/>
<path d="M291.58 86.0298C297.179 86.0335 302.604 87.9713 306.93 91.5131C311.256 95.0549 314.216 99.9816 315.305 105.454C316.395 110.926 315.547 116.606 312.905 121.525C310.264 126.444 305.993 130.298 300.819 132.432C295.645 134.565 289.89 134.845 284.532 133.224C279.174 131.603 274.547 128.182 271.437 123.543C268.327 118.904 266.927 113.333 267.476 107.781C268.026 102.229 270.49 97.0387 274.449 93.0937C276.693 90.8457 279.363 89.0637 282.304 87.8512C285.245 86.6386 288.398 86.0195 291.58 86.0298V86.0298ZM291.58 82.2755C286.044 82.2755 280.633 83.9111 276.03 86.9755C271.428 90.0399 267.84 94.3954 265.722 99.4913C263.604 104.587 263.049 110.195 264.129 115.604C265.209 121.014 267.875 125.983 271.789 129.883C275.703 133.784 280.691 136.44 286.12 137.516C291.549 138.592 297.177 138.04 302.291 135.929C307.405 133.818 311.776 130.244 314.852 125.657C317.927 121.071 319.569 115.679 319.569 110.164C319.569 106.501 318.846 102.874 317.44 99.4904C316.033 96.1066 313.972 93.0319 311.373 90.4421C308.773 87.8523 305.688 85.7981 302.292 84.3969C298.896 82.9956 295.256 82.2748 291.58 82.2755V82.2755Z" fill="#6C63FF"/>
<path d="M259.295 105.109H99.9898V263.842H259.295V105.109Z" fill="#F3F5F7"/>
<path d="M484.233 105.109H324.928V263.842H484.233V105.109Z" fill="#F3F5F7"/>
<path opacity="0.1" d="M67.4182 93.0608H14.2835V98.9447H67.4182V93.0608Z" fill="black"/>
<path opacity="0.1" d="M520.909 93.0608H467.774V98.9447H520.909V93.0608Z" fill="black"/>
<path d="M378.135 317.455C379.859 320.26 389.961 325.271 389.961 325.271C389.961 325.271 390.05 314.025 388.309 311.22C387.479 309.874 386.147 308.912 384.605 308.545C383.063 308.178 381.438 308.436 380.087 309.263C378.737 310.09 377.771 311.418 377.403 312.954C377.035 314.49 377.294 316.109 378.124 317.455H378.135Z" fill="#6C63FF"/>
<path opacity="0.1" d="M173.688 138.99H120.553V144.874H173.688V138.99Z" fill="black"/>
<path opacity="0.1" d="M250.189 190.71H218.466V196.594H250.189V190.71Z" fill="black"/>
<path opacity="0.1" d="M265.442 230.196H218.466V236.08H265.442V230.196Z" fill="black"/>
<path opacity="0.1" d="M173.688 159.727H120.553V165.61H173.688V159.727Z" fill="black"/>
<path opacity="0.1" d="M412.794 138.99H359.659V144.874H412.794V138.99Z" fill="black"/>
<path opacity="0.1" d="M412.794 159.727H359.659V165.61H412.794V159.727Z" fill="black"/>
<path d="M284.05 118.364L285.537 116.421C286.968 117.818 288.888 118.605 290.892 118.616C293.403 118.616 295.265 117.392 295.265 115.411C295.265 113.259 293.481 111.843 288.534 111.843V109.609C292.941 109.609 294.593 108.166 294.593 106.261C294.593 104.538 293.111 103.462 290.914 103.462C289.201 103.512 287.565 104.179 286.308 105.339L284.728 103.462C286.464 101.915 288.705 101.047 291.035 101.019C294.841 101.019 297.645 102.842 297.645 106.036C297.645 108.286 295.992 109.757 293.613 110.57V110.69C296.163 111.239 298.3 112.924 298.3 115.553C298.3 119.022 294.995 121.103 291.095 121.103C287.779 121.097 285.504 119.84 284.05 118.364Z" fill="#6C63FF"/>
<g opacity="0.8">
<path opacity="0.8" d="M406.338 67.7854C406.338 66.7316 406.432 65.3868 406.487 64.333H406.349C405.743 65.2661 405.055 66.1937 404.438 67.1213L400.031 72.7527H411.731V75.0195H397.012V73.0985L405.798 61.5722H409.032V79.899H406.338V67.7854Z" fill="#6C63FF"/>
</g>
<g opacity="0.5">
<path opacity="0.5" d="M507.799 28.4753L508.796 27.1196C509.76 28.0611 511.054 28.5908 512.404 28.5961C514.178 28.5961 515.571 27.5423 515.571 25.8133C515.571 24.0844 514.343 23.1513 512.519 23.1513C511.596 23.1436 510.691 23.4092 509.919 23.9142L508.884 23.2501L509.303 16.7679H517.014V18.5518H511.12L510.795 22.103C511.513 21.7782 512.293 21.6134 513.081 21.6199C515.61 21.6199 517.67 22.9153 517.67 25.7804C517.67 28.6455 515.257 30.3195 512.652 30.3195C511.761 30.3456 510.873 30.1961 510.041 29.8796C509.208 29.5631 508.446 29.0859 507.799 28.4753V28.4753Z" fill="#6C63FF"/>
</g>
<path opacity="0.1" d="M388.155 155.506H191.232V351.721H388.155V155.506Z" fill="#6C63FF"/>
<path d="M394.765 146.175H197.842V342.39H394.765V146.175Z" fill="white"/>
<path opacity="0.5" d="M374.136 167.91H218.466V173.794H374.136V167.91Z" fill="#6C63FF"/>
<path opacity="0.1" d="M317.591 210.453H218.466V216.337H317.591V210.453Z" fill="black"/>
<path opacity="0.1" d="M314.644 249.944H218.466V255.828H314.644V249.944Z" fill="black"/>
<path opacity="0.1" d="M349.573 269.687H218.466V275.571H349.573V269.687Z" fill="black"/>
<path opacity="0.5" d="M345.668 210.974L344.99 210.277C344.96 210.25 344.921 210.234 344.88 210.234C344.841 210.234 344.803 210.25 344.775 210.277L340.077 214.998L338.364 213.291C338.333 213.264 338.294 213.248 338.253 213.247C338.214 213.248 338.177 213.264 338.149 213.291L337.46 213.977C337.446 213.991 337.434 214.008 337.426 214.027C337.418 214.046 337.414 214.066 337.414 214.087C337.414 214.107 337.418 214.127 337.426 214.146C337.434 214.165 337.446 214.182 337.46 214.196L339.619 216.342C339.737 216.47 339.898 216.548 340.071 216.562C340.241 216.548 340.4 216.472 340.517 216.348V216.348L345.668 211.194C345.693 211.163 345.707 211.124 345.707 211.084C345.707 211.044 345.693 211.006 345.668 210.974V210.974Z" fill="#3ACC6C"/>
<path opacity="0.5" d="M341.564 206.474C343.17 206.473 344.727 207.026 345.969 208.041C347.211 209.055 348.061 210.467 348.376 212.037C348.69 213.606 348.448 215.235 347.691 216.647C346.935 218.059 345.711 219.165 344.227 219.778C342.744 220.391 341.093 220.472 339.556 220.008C338.019 219.544 336.691 218.563 335.799 217.233C334.906 215.902 334.504 214.304 334.662 212.712C334.819 211.119 335.526 209.631 336.661 208.499C337.303 207.855 338.067 207.345 338.909 206.997C339.75 206.649 340.653 206.471 341.564 206.474V206.474ZM341.564 205.403C339.978 205.402 338.428 205.87 337.109 206.747C335.79 207.624 334.762 208.871 334.155 210.331C333.547 211.79 333.388 213.396 333.697 214.946C334.006 216.496 334.77 217.919 335.891 219.036C337.012 220.154 338.441 220.914 339.996 221.222C341.551 221.53 343.163 221.372 344.628 220.767C346.093 220.161 347.345 219.137 348.225 217.823C349.105 216.509 349.574 214.964 349.573 213.384C349.57 211.269 348.725 209.242 347.223 207.748C345.722 206.254 343.686 205.414 341.564 205.414V205.403Z" fill="#3ACC6C"/>
<path opacity="0.5" d="M345.668 250.46L344.99 249.769C344.976 249.754 344.959 249.742 344.94 249.735C344.921 249.727 344.901 249.724 344.88 249.725C344.861 249.724 344.841 249.727 344.823 249.735C344.805 249.742 344.789 249.754 344.775 249.769L340.077 254.483L338.364 252.782C338.349 252.767 338.332 252.754 338.314 252.746C338.295 252.737 338.274 252.733 338.253 252.732C338.233 252.733 338.214 252.738 338.196 252.746C338.178 252.755 338.162 252.767 338.149 252.782L337.46 253.462C337.446 253.477 337.434 253.494 337.426 253.513C337.418 253.532 337.414 253.552 337.414 253.572C337.414 253.593 337.418 253.613 337.426 253.632C337.434 253.651 337.446 253.668 337.46 253.682L339.619 255.834C339.737 255.961 339.898 256.039 340.071 256.053C340.241 256.036 340.399 255.961 340.517 255.839V255.839L345.668 250.68C345.693 250.649 345.707 250.61 345.707 250.57C345.707 250.53 345.693 250.491 345.668 250.46V250.46Z" fill="#3ACC6C"/>
<path opacity="0.5" d="M341.564 245.992C343.17 245.991 344.727 246.545 345.969 247.559C347.211 248.574 348.061 249.986 348.376 251.555C348.69 253.125 348.448 254.754 347.691 256.166C346.935 257.577 345.711 258.684 344.227 259.297C342.744 259.909 341.093 259.991 339.556 259.527C338.019 259.062 336.691 258.082 335.799 256.751C334.906 255.421 334.504 253.823 334.662 252.231C334.819 250.638 335.526 249.149 336.661 248.018C337.303 247.374 338.067 246.863 338.909 246.516C339.75 246.168 340.653 245.99 341.564 245.992V245.992ZM341.564 244.895C339.979 244.894 338.428 245.361 337.11 246.238C335.791 247.115 334.763 248.362 334.155 249.821C333.548 251.28 333.388 252.886 333.697 254.435C334.006 255.985 334.768 257.408 335.889 258.526C337.01 259.643 338.438 260.404 339.993 260.713C341.548 261.021 343.159 260.864 344.624 260.259C346.089 259.655 347.341 258.632 348.222 257.318C349.103 256.005 349.573 254.46 349.573 252.881C349.574 251.832 349.367 250.794 348.965 249.825C348.563 248.856 347.973 247.976 347.229 247.234C346.486 246.492 345.602 245.904 344.63 245.503C343.658 245.101 342.616 244.895 341.564 244.895V244.895Z" fill="#3ACC6C"/>
</svg>
